<?xml version="1.0" encoding="UTF-8" standalone="no"?>
<!DOCTYPE svg PUBLIC "-//W3C//DTD SVG 1.1//EN"
 "http://www.w3.org/Graphics/SVG/1.1/DTD/svg11.dtd">
<!-- Generated by graphviz version 15.1.0 (20260618.0150)
 -->
<!-- Title: VDT WebRTC &#45; Deployment: Dev vs Prod Pages: 1 -->
<svg width="4732pt" height="6360pt"
 viewBox="0.00 0.00 4732.00 6360.00" xmlns="http://www.w3.org/2000/svg" xmlns:xlink="http://www.w3.org/1999/xlink">
<g id="graph0" class="graph" transform="scale(4.16667 4.16667) rotate(0) translate(28.8 1497.5)">
<title>VDT WebRTC &#45; Deployment: Dev vs Prod</title>
<polygon fill="white" stroke="none" points="-28.8,28.8 -28.8,-1497.5 1106.8,-1497.5 1106.8,28.8 -28.8,28.8"/>
<text xml:space="preserve" text-anchor="middle" x="539" y="-10.85" font-family="Sans-Serif" font-size="22.00" fill="#2d3436">VDT WebRTC &#45; Deployment: Dev vs Prod</text>
<g id="clust1" class="cluster">
<title>cluster_DEV &#45; 1 may local (docker compose up)</title>
<path fill="#e5f5fd" stroke="#aeb6be" d="M20,-492.95C20,-492.95 523,-492.95 523,-492.95 529,-492.95 535,-498.95 535,-504.95 535,-504.95 535,-1448.7 535,-1448.7 535,-1454.7 529,-1460.7 523,-1460.7 523,-1460.7 20,-1460.7 20,-1460.7 14,-1460.7 8,-1454.7 8,-1448.7 8,-1448.7 8,-504.95 8,-504.95 8,-498.95 14,-492.95 20,-492.95"/>
<text xml:space="preserve" text-anchor="middle" x="121" y="-1445.3" font-family="Sans-Serif" font-size="12.00" fill="#2d3436">DEV &#45; 1 may local (docker compose up)</text>
</g>
<g id="clust2" class="cluster">
<title>cluster_PROD &#45; AWS EC2 (+ docker&#45;compose.prod.yml)</title>
<path fill="#e5f5fd" stroke="#aeb6be" d="M555,-43.75C555,-43.75 1058,-43.75 1058,-43.75 1064,-43.75 1070,-49.75 1070,-55.75 1070,-55.75 1070,-1434.3 1070,-1434.3 1070,-1440.3 1064,-1446.3 1058,-1446.3 1058,-1446.3 555,-1446.3 555,-1446.3 549,-1446.3 543,-1440.3 543,-1434.3 543,-1434.3 543,-55.75 543,-55.75 543,-49.75 549,-43.75 555,-43.75"/>
<text xml:space="preserve" text-anchor="middle" x="678.12" y="-1430.9" font-family="Sans-Serif" font-size="12.00" fill="#2d3436">PROD &#45; AWS EC2 (+ docker&#45;compose.prod.yml)</text>
</g>
<!-- 75ac57beb9d745368bcfe82312833315 -->
<g id="node1" class="node">
<title>75ac57beb9d745368bcfe82312833315</title>
<image xlink:href="C:\Users\admin\AppData\Roaming\Python\Python314\site-packages\resources/programming/framework\spring.png" width="100.8px" height="100.8px" preserveAspectRatio="xMinYMin meet" x="152.6" y="-1127.65"/>
<text xml:space="preserve" text-anchor="middle" x="203" y="-1013.2" font-family="Sans-Serif" font-size="12.00" fill="#2d3436">backend&#45;1</text>
</g>
<!-- d2f45c9d52a442d1822f64e25c60fa36 -->
<g id="node2" class="node">
<title>d2f45c9d52a442d1822f64e25c60fa36</title>
<image xlink:href="C:\Users\admin\AppData\Roaming\Python\Python314\site-packages\resources/onprem/database\postgresql.png" width="100.8px" height="100.8px" preserveAspectRatio="xMinYMin meet" x="152.6" y="-873.15"/>
<text xml:space="preserve" text-anchor="middle" x="203" y="-760.05" font-family="Sans-Serif" font-size="12.00" fill="#2d3436">postgres:17</text>
<text xml:space="preserve" text-anchor="middle" x="203" y="-744.3" font-family="Sans-Serif" font-size="12.00" fill="#2d3436">:5432</text>
</g>
<!-- 75ac57beb9d745368bcfe82312833315&#45;&gt;d2f45c9d52a442d1822f64e25c60fa36 -->
<g id="edge1" class="edge">
<title>75ac57beb9d745368bcfe82312833315&#45;&gt;d2f45c9d52a442d1822f64e25c60fa36</title>
<path fill="none" stroke="#7b8894" d="M203,-1008.92C203,-980.55 203,-947.07 203,-916.44"/>
<polygon fill="#7b8894" stroke="#7b8894" points="206.5,-916.81 203,-906.81 199.5,-916.81 206.5,-916.81"/>
</g>
<!-- cb00de5bf4a24279b3a6767bf5bbb9a3 -->
<g id="node3" class="node">
<title>cb00de5bf4a24279b3a6767bf5bbb9a3</title>
<image xlink:href="C:\Users\admin\AppData\Roaming\Python\Python314\site-packages\resources/onprem/inmemory\redis.png" width="100.8px" height="100.8px" preserveAspectRatio="xMinYMin meet" x="15.6" y="-873.15"/>
<text xml:space="preserve" text-anchor="middle" x="66" y="-760.05" font-family="Sans-Serif" font-size="12.00" fill="#2d3436">redis:7</text>
<text xml:space="preserve" text-anchor="middle" x="66" y="-744.3" font-family="Sans-Serif" font-size="12.00" fill="#2d3436">:6379</text>
</g>
<!-- 75ac57beb9d745368bcfe82312833315&#45;&gt;cb00de5bf4a24279b3a6767bf5bbb9a3 -->
<g id="edge2" class="edge">
<title>75ac57beb9d745368bcfe82312833315&#45;&gt;cb00de5bf4a24279b3a6767bf5bbb9a3</title>
<path fill="none" stroke="#7b8894" d="M166.47,-1008.92C150.87,-980.18 132.43,-946.19 115.63,-915.23"/>
<polygon fill="#7b8894" stroke="#7b8894" points="118.81,-913.74 110.96,-906.62 112.66,-917.08 118.81,-913.74"/>
</g>
<!-- 04014fe2c5a4473fab7c5c76fb242130 -->
<g id="node4" class="node">
<title>04014fe2c5a4473fab7c5c76fb242130</title>
<image xlink:href="C:\Users\admin\AppData\Roaming\Python\Python314\site-packages\resources/onprem/queue\rabbitmq.png" width="100.8px" height="100.8px" preserveAspectRatio="xMinYMin meet" x="426.6" y="-873.15"/>
<text xml:space="preserve" text-anchor="middle" x="477" y="-760.05" font-family="Sans-Serif" font-size="12.00" fill="#2d3436">rabbitmq:4.1</text>
<text xml:space="preserve" text-anchor="middle" x="477" y="-744.3" font-family="Sans-Serif" font-size="12.00" fill="#2d3436">:5672 / :15672</text>
</g>
<!-- 75ac57beb9d745368bcfe82312833315&#45;&gt;04014fe2c5a4473fab7c5c76fb242130 -->
<g id="edge3" class="edge">
<title>75ac57beb9d745368bcfe82312833315&#45;&gt;04014fe2c5a4473fab7c5c76fb242130</title>
<path fill="none" stroke="#7b8894" d="M253.16,-1011.93C259.2,-1005.7 265.53,-999.74 272,-994.45 325.35,-950.81 356.41,-965.65 408,-919.95 411.93,-916.47 415.76,-912.73 419.47,-908.81"/>
<polygon fill="#7b8894" stroke="#7b8894" points="421.81,-911.44 425.91,-901.67 416.62,-906.75 421.81,-911.44"/>
</g>
<!-- 55cb4dc09f4a4ad3a2f851b89340f31e -->
<g id="node7" class="node">
<title>55cb4dc09f4a4ad3a2f851b89340f31e</title>
<image xlink:href="C:\Users\admin\AppData\Roaming\Python\Python314\site-packages\resources/onprem/monitoring\prometheus.png" width="100.8px" height="100.8px" preserveAspectRatio="xMinYMin meet" x="289.6" y="-873.15"/>
<text xml:space="preserve" text-anchor="middle" x="340" y="-760.05" font-family="Sans-Serif" font-size="12.00" fill="#2d3436">prometheus</text>
<text xml:space="preserve" text-anchor="middle" x="340" y="-744.3" font-family="Sans-Serif" font-size="12.00" fill="#2d3436">:9090</text>
</g>
<!-- 75ac57beb9d745368bcfe82312833315&#45;&gt;55cb4dc09f4a4ad3a2f851b89340f31e -->
<g id="edge8" class="edge">
<title>75ac57beb9d745368bcfe82312833315&#45;&gt;55cb4dc09f4a4ad3a2f851b89340f31e</title>
<path fill="none" stroke="#7b8894" stroke-dasharray="1,5" d="M239.53,-1008.92C255.13,-980.18 273.57,-946.19 290.37,-915.23"/>
<polygon fill="#7b8894" stroke="#7b8894" points="293.34,-917.08 295.04,-906.62 287.19,-913.74 293.34,-917.08"/>
</g>
<!-- 81149080154b495eb73abc081b20ae8a -->
<g id="node6" class="node">
<title>81149080154b495eb73abc081b20ae8a</title>
<image xlink:href="C:\Users\admin\AppData\Roaming\Python\Python314\site-packages\resources/generic/storage\storage.png" width="100.8px" height="100.8px" preserveAspectRatio="xMinYMin meet" x="152.6" y="-634.15"/>
<text xml:space="preserve" text-anchor="middle" x="203" y="-521.05" font-family="Sans-Serif" font-size="12.00" fill="#2d3436">pgdata</text>
<text xml:space="preserve" text-anchor="middle" x="203" y="-505.3" font-family="Sans-Serif" font-size="12.00" fill="#2d3436">(named volume)</text>
</g>
<!-- d2f45c9d52a442d1822f64e25c60fa36&#45;&gt;81149080154b495eb73abc081b20ae8a -->
<g id="edge7" class="edge">
<title>d2f45c9d52a442d1822f64e25c60fa36&#45;&gt;81149080154b495eb73abc081b20ae8a</title>
<path fill="none" stroke="#7b8894" d="M203,-740.19C203,-720.08 203,-698.39 203,-677.78"/>
<polygon fill="#7b8894" stroke="#7b8894" points="206.5,-677.98 203,-667.98 199.5,-677.98 206.5,-677.98"/>
</g>
<!-- df403d74342542b29120ac82ab527dcf -->
<g id="node5" class="node">
<title>df403d74342542b29120ac82ab527dcf</title>
<image xlink:href="C:\Users\admin\AppData\Roaming\Python\Python314\site-packages\resources/programming/framework\spring.png" width="100.8px" height="100.8px" preserveAspectRatio="xMinYMin meet" x="289.6" y="-1127.65"/>
<text xml:space="preserve" text-anchor="middle" x="340" y="-1013.2" font-family="Sans-Serif" font-size="12.00" fill="#2d3436">backend&#45;2</text>
</g>
<!-- df403d74342542b29120ac82ab527dcf&#45;&gt;d2f45c9d52a442d1822f64e25c60fa36 -->
<g id="edge4" class="edge">
<title>df403d74342542b29120ac82ab527dcf&#45;&gt;d2f45c9d52a442d1822f64e25c60fa36</title>
<path fill="none" stroke="#7b8894" d="M303.49,-1008.86C293,-989.51 281.55,-968.39 271,-948.95 265.07,-938.02 258.85,-926.55 252.67,-915.19"/>
<polygon fill="#7b8894" stroke="#7b8894" points="255.84,-913.68 247.99,-906.57 249.69,-917.02 255.84,-913.68"/>
</g>
<!-- df403d74342542b29120ac82ab527dcf&#45;&gt;cb00de5bf4a24279b3a6767bf5bbb9a3 -->
<g id="edge5" class="edge">
<title>df403d74342542b29120ac82ab527dcf&#45;&gt;cb00de5bf4a24279b3a6767bf5bbb9a3</title>
<path fill="none" stroke="#7b8894" d="M289.84,-1011.93C283.8,-1005.7 277.47,-999.74 271,-994.45 217.65,-950.81 186.59,-965.65 135,-919.95 131.07,-916.47 127.24,-912.73 123.53,-908.81"/>
<polygon fill="#7b8894" stroke="#7b8894" points="126.38,-906.75 117.09,-901.67 121.19,-911.44 126.38,-906.75"/>
</g>
<!-- df403d74342542b29120ac82ab527dcf&#45;&gt;04014fe2c5a4473fab7c5c76fb242130 -->
<g id="edge6" class="edge">
<title>df403d74342542b29120ac82ab527dcf&#45;&gt;04014fe2c5a4473fab7c5c76fb242130</title>
<path fill="none" stroke="#7b8894" d="M376.53,-1008.92C392.13,-980.18 410.57,-946.19 427.37,-915.23"/>
<polygon fill="#7b8894" stroke="#7b8894" points="430.34,-917.08 432.04,-906.62 424.19,-913.74 430.34,-917.08"/>
</g>
<!-- df403d74342542b29120ac82ab527dcf&#45;&gt;55cb4dc09f4a4ad3a2f851b89340f31e -->
<g id="edge9" class="edge">
<title>df403d74342542b29120ac82ab527dcf&#45;&gt;55cb4dc09f4a4ad3a2f851b89340f31e</title>
<path fill="none" stroke="#7b8894" stroke-dasharray="1,5" d="M340,-1008.92C340,-980.55 340,-947.07 340,-916.44"/>
<polygon fill="#7b8894" stroke="#7b8894" points="343.5,-916.81 340,-906.81 336.5,-916.81 343.5,-916.81"/>
</g>
<!-- c3c0ded5abf84988a6a235f4bad15de5 -->
<g id="node8" class="node">
<title>c3c0ded5abf84988a6a235f4bad15de5</title>
<image xlink:href="C:\Users\admin\AppData\Roaming\Python\Python314\site-packages\resources/onprem/monitoring\grafana.png" width="100.8px" height="104.105px" preserveAspectRatio="xMinYMin meet" x="289.6" y="-635.802"/>
<text xml:space="preserve" text-anchor="middle" x="340" y="-521.05" font-family="Sans-Serif" font-size="12.00" fill="#2d3436">grafana</text>
<text xml:space="preserve" text-anchor="middle" x="340" y="-505.3" font-family="Sans-Serif" font-size="12.00" fill="#2d3436">:3000</text>
</g>
<!-- 55cb4dc09f4a4ad3a2f851b89340f31e&#45;&gt;c3c0ded5abf84988a6a235f4bad15de5 -->
<g id="edge10" class="edge">
<title>55cb4dc09f4a4ad3a2f851b89340f31e&#45;&gt;c3c0ded5abf84988a6a235f4bad15de5</title>
<path fill="none" stroke="#7b8894" d="M340,-740.19C340,-720.08 340,-698.39 340,-677.78"/>
<polygon fill="#7b8894" stroke="#7b8894" points="343.5,-677.98 340,-667.98 336.5,-677.98 343.5,-677.98"/>
</g>
<!-- 24376ebb06a642fcaea143a250c3b3d7 -->
<g id="node9" class="node">
<title>24376ebb06a642fcaea143a250c3b3d7</title>
<image xlink:href="C:\Users\admin\AppData\Roaming\Python\Python314\site-packages\resources/onprem/network\nginx.png" width="100.8px" height="100.8px" preserveAspectRatio="xMinYMin meet" x="220.6" y="-1382.15"/>
<text xml:space="preserve" text-anchor="middle" x="271" y="-1270.4" font-family="Sans-Serif" font-size="12.00" fill="#2d3436">nginx</text>
<text xml:space="preserve" text-anchor="middle" x="271" y="-1254.65" font-family="Sans-Serif" font-size="12.00" fill="#2d3436">HTTP :8080 &#45;&gt; :80</text>
<text xml:space="preserve" text-anchor="middle" x="271" y="-1238.9" font-family="Sans-Serif" font-size="12.00" fill="#2d3436">(default.conf bake trong image)</text>
</g>
<!-- 24376ebb06a642fcaea143a250c3b3d7&#45;&gt;75ac57beb9d745368bcfe82312833315 -->
<g id="edge11" class="edge">
<title>24376ebb06a642fcaea143a250c3b3d7&#45;&gt;75ac57beb9d745368bcfe82312833315</title>
<path fill="none" stroke="#7b8894" d="M245.1,-1234.57C238.17,-1208.83 230.76,-1181.31 224.12,-1156.66"/>
<polygon fill="#7b8894" stroke="#7b8894" points="227.5,-1155.75 221.52,-1147.01 220.74,-1157.57 227.5,-1155.75"/>
</g>
<!-- 24376ebb06a642fcaea143a250c3b3d7&#45;&gt;df403d74342542b29120ac82ab527dcf -->
<g id="edge12" class="edge">
<title>24376ebb06a642fcaea143a250c3b3d7&#45;&gt;df403d74342542b29120ac82ab527dcf</title>
<path fill="none" stroke="#7b8894" d="M297.28,-1234.57C304.35,-1208.71 311.9,-1181.07 318.66,-1156.32"/>
<polygon fill="#7b8894" stroke="#7b8894" points="321.95,-1157.58 321.21,-1147.01 315.2,-1155.73 321.95,-1157.58"/>
</g>
<!-- d3a41999642e409385597ce7d779bcfb -->
<g id="node10" class="node">
<title>d3a41999642e409385597ce7d779bcfb</title>
<image xlink:href="C:\Users\admin\AppData\Roaming\Python\Python314\site-packages\resources/programming/framework\spring.png" width="100.8px" height="100.8px" preserveAspectRatio="xMinYMin meet" x="687.6" y="-634.15"/>
<text xml:space="preserve" text-anchor="middle" x="738" y="-519.7" font-family="Sans-Serif" font-size="12.00" fill="#2d3436">backend&#45;1</text>
</g>
<!-- 4610a9759ab74e77809440784ca9f688 -->
<g id="node11" class="node">
<title>4610a9759ab74e77809440784ca9f688</title>
<image xlink:href="C:\Users\admin\AppData\Roaming\Python\Python314\site-packages\resources/onprem/database\postgresql.png" width="100.8px" height="100.8px" preserveAspectRatio="xMinYMin meet" x="687.6" y="-409.55"/>
<text xml:space="preserve" text-anchor="middle" x="738" y="-296.45" font-family="Sans-Serif" font-size="12.00" fill="#2d3436">postgres:17</text>
<text xml:space="preserve" text-anchor="middle" x="738" y="-280.7" font-family="Sans-Serif" font-size="12.00" fill="#2d3436">:5432</text>
</g>
<!-- d3a41999642e409385597ce7d779bcfb&#45;&gt;4610a9759ab74e77809440784ca9f688 -->
<g id="edge13" class="edge">
<title>d3a41999642e409385597ce7d779bcfb&#45;&gt;4610a9759ab74e77809440784ca9f688</title>
<path fill="none" stroke="#7b8894" d="M738,-515.36C738,-495.82 738,-474.12 738,-453.3"/>
<polygon fill="#7b8894" stroke="#7b8894" points="741.5,-453.36 738,-443.36 734.5,-453.36 741.5,-453.36"/>
</g>
<!-- 3c68d7f4fca24c4aa2e46b700ea0e84f -->
<g id="node12" class="node">
<title>3c68d7f4fca24c4aa2e46b700ea0e84f</title>
<image xlink:href="C:\Users\admin\AppData\Roaming\Python\Python314\site-packages\resources/onprem/inmemory\redis.png" width="100.8px" height="100.8px" preserveAspectRatio="xMinYMin meet" x="550.6" y="-409.55"/>
<text xml:space="preserve" text-anchor="middle" x="601" y="-296.45" font-family="Sans-Serif" font-size="12.00" fill="#2d3436">redis:7</text>
<text xml:space="preserve" text-anchor="middle" x="601" y="-280.7" font-family="Sans-Serif" font-size="12.00" fill="#2d3436">:6379</text>
</g>
<!-- d3a41999642e409385597ce7d779bcfb&#45;&gt;3c68d7f4fca24c4aa2e46b700ea0e84f -->
<g id="edge14" class="edge">
<title>d3a41999642e409385597ce7d779bcfb&#45;&gt;3c68d7f4fca24c4aa2e46b700ea0e84f</title>
<path fill="none" stroke="#7b8894" d="M696.52,-515.36C684.16,-495.27 670.4,-472.92 657.26,-451.57"/>
<polygon fill="#7b8894" stroke="#7b8894" points="660.29,-449.81 652.07,-443.13 654.33,-453.48 660.29,-449.81"/>
</g>
<!-- 13546e373abb44f6ba9aa7494bc7b288 -->
<g id="node13" class="node">
<title>13546e373abb44f6ba9aa7494bc7b288</title>
<image xlink:href="C:\Users\admin\AppData\Roaming\Python\Python314\site-packages\resources/onprem/queue\rabbitmq.png" width="100.8px" height="100.8px" preserveAspectRatio="xMinYMin meet" x="961.6" y="-409.55"/>
<text xml:space="preserve" text-anchor="middle" x="1012" y="-296.45" font-family="Sans-Serif" font-size="12.00" fill="#2d3436">rabbitmq:4.1</text>
<text xml:space="preserve" text-anchor="middle" x="1012" y="-280.7" font-family="Sans-Serif" font-size="12.00" fill="#2d3436">:5672 / :15672</text>
</g>
<!-- d3a41999642e409385597ce7d779bcfb&#45;&gt;13546e373abb44f6ba9aa7494bc7b288 -->
<g id="edge15" class="edge">
<title>d3a41999642e409385597ce7d779bcfb&#45;&gt;13546e373abb44f6ba9aa7494bc7b288</title>
<path fill="none" stroke="#7b8894" d="M782.74,-515.5C790.17,-507.2 798.31,-499.38 807,-492.95 858.89,-454.54 890.25,-479.16 943,-441.95 946.57,-439.43 950.07,-436.69 953.47,-433.77"/>
<polygon fill="#7b8894" stroke="#7b8894" points="955.59,-436.58 960.62,-427.26 950.88,-431.41 955.59,-436.58"/>
</g>
<!-- 96ea3f8604104598a60ae319dd0a81fd -->
<g id="node16" class="node">
<title>96ea3f8604104598a60ae319dd0a81fd</title>
<image xlink:href="C:\Users\admin\AppData\Roaming\Python\Python314\site-packages\resources/onprem/monitoring\prometheus.png" width="100.8px" height="100.8px" preserveAspectRatio="xMinYMin meet" x="824.6" y="-409.55"/>
<text xml:space="preserve" text-anchor="middle" x="875" y="-296.45" font-family="Sans-Serif" font-size="12.00" fill="#2d3436">prometheus</text>
<text xml:space="preserve" text-anchor="middle" x="875" y="-280.7" font-family="Sans-Serif" font-size="12.00" fill="#2d3436">:9090</text>
</g>
<!-- d3a41999642e409385597ce7d779bcfb&#45;&gt;96ea3f8604104598a60ae319dd0a81fd -->
<g id="edge20" class="edge">
<title>d3a41999642e409385597ce7d779bcfb&#45;&gt;96ea3f8604104598a60ae319dd0a81fd</title>
<path fill="none" stroke="#7b8894" stroke-dasharray="1,5" d="M779.48,-515.36C791.84,-495.27 805.6,-472.92 818.74,-451.57"/>
<polygon fill="#7b8894" stroke="#7b8894" points="821.67,-453.48 823.93,-443.13 815.71,-449.81 821.67,-453.48"/>
</g>
<!-- bde04e015a8f41ffaf29dd8e667b83a4 -->
<g id="node15" class="node">
<title>bde04e015a8f41ffaf29dd8e667b83a4</title>
<image xlink:href="C:\Users\admin\AppData\Roaming\Python\Python314\site-packages\resources/generic/storage\storage.png" width="100.8px" height="100.8px" preserveAspectRatio="xMinYMin meet" x="687.6" y="-184.95"/>
<text xml:space="preserve" text-anchor="middle" x="738" y="-71.85" font-family="Sans-Serif" font-size="12.00" fill="#2d3436">pgdata</text>
<text xml:space="preserve" text-anchor="middle" x="738" y="-56.1" font-family="Sans-Serif" font-size="12.00" fill="#2d3436">(named volume)</text>
</g>
<!-- 4610a9759ab74e77809440784ca9f688&#45;&gt;bde04e015a8f41ffaf29dd8e667b83a4 -->
<g id="edge19" class="edge">
<title>4610a9759ab74e77809440784ca9f688&#45;&gt;bde04e015a8f41ffaf29dd8e667b83a4</title>
<path fill="none" stroke="#7b8894" d="M738,-276.53C738,-260.95 738,-244.54 738,-228.63"/>
<polygon fill="#7b8894" stroke="#7b8894" points="741.5,-228.68 738,-218.68 734.5,-228.68 741.5,-228.68"/>
</g>
<!-- 575e5202979d482083fdf54dfce2c43e -->
<g id="node14" class="node">
<title>575e5202979d482083fdf54dfce2c43e</title>
<image xlink:href="C:\Users\admin\AppData\Roaming\Python\Python314\site-packages\resources/programming/framework\spring.png" width="100.8px" height="100.8px" preserveAspectRatio="xMinYMin meet" x="824.6" y="-634.15"/>
<text xml:space="preserve" text-anchor="middle" x="875" y="-519.7" font-family="Sans-Serif" font-size="12.00" fill="#2d3436">backend&#45;2</text>
</g>
<!-- 575e5202979d482083fdf54dfce2c43e&#45;&gt;4610a9759ab74e77809440784ca9f688 -->
<g id="edge16" class="edge">
<title>575e5202979d482083fdf54dfce2c43e&#45;&gt;4610a9759ab74e77809440784ca9f688</title>
<path fill="none" stroke="#7b8894" d="M833.52,-515.36C821.16,-495.27 807.4,-472.92 794.26,-451.57"/>
<polygon fill="#7b8894" stroke="#7b8894" points="797.29,-449.81 789.07,-443.13 791.33,-453.48 797.29,-449.81"/>
</g>
<!-- 575e5202979d482083fdf54dfce2c43e&#45;&gt;3c68d7f4fca24c4aa2e46b700ea0e84f -->
<g id="edge17" class="edge">
<title>575e5202979d482083fdf54dfce2c43e&#45;&gt;3c68d7f4fca24c4aa2e46b700ea0e84f</title>
<path fill="none" stroke="#7b8894" d="M830.26,-515.5C822.83,-507.2 814.69,-499.38 806,-492.95 754.11,-454.54 722.75,-479.16 670,-441.95 666.43,-439.43 662.93,-436.69 659.53,-433.77"/>
<polygon fill="#7b8894" stroke="#7b8894" points="662.12,-431.41 652.38,-427.26 657.41,-436.58 662.12,-431.41"/>
</g>
<!-- 575e5202979d482083fdf54dfce2c43e&#45;&gt;13546e373abb44f6ba9aa7494bc7b288 -->
<g id="edge18" class="edge">
<title>575e5202979d482083fdf54dfce2c43e&#45;&gt;13546e373abb44f6ba9aa7494bc7b288</title>
<path fill="none" stroke="#7b8894" d="M916.48,-515.36C928.84,-495.27 942.6,-472.92 955.74,-451.57"/>
<polygon fill="#7b8894" stroke="#7b8894" points="958.67,-453.48 960.93,-443.13 952.71,-449.81 958.67,-453.48"/>
</g>
<!-- 575e5202979d482083fdf54dfce2c43e&#45;&gt;96ea3f8604104598a60ae319dd0a81fd -->
<g id="edge21" class="edge">
<title>575e5202979d482083fdf54dfce2c43e&#45;&gt;96ea3f8604104598a60ae319dd0a81fd</title>
<path fill="none" stroke="#7b8894" stroke-dasharray="1,5" d="M875,-515.36C875,-495.82 875,-474.12 875,-453.3"/>
<polygon fill="#7b8894" stroke="#7b8894" points="878.5,-453.36 875,-443.36 871.5,-453.36 878.5,-453.36"/>
</g>
<!-- 55598df382fb459989678cf2db1ccd82 -->
<g id="node17" class="node">
<title>55598df382fb459989678cf2db1ccd82</title>
<image xlink:href="C:\Users\admin\AppData\Roaming\Python\Python314\site-packages\resources/onprem/monitoring\grafana.png" width="100.8px" height="104.105px" preserveAspectRatio="xMinYMin meet" x="824.6" y="-186.602"/>
<text xml:space="preserve" text-anchor="middle" x="875" y="-71.85" font-family="Sans-Serif" font-size="12.00" fill="#2d3436">grafana</text>
<text xml:space="preserve" text-anchor="middle" x="875" y="-56.1" font-family="Sans-Serif" font-size="12.00" fill="#2d3436">:3000</text>
</g>
<!-- 96ea3f8604104598a60ae319dd0a81fd&#45;&gt;55598df382fb459989678cf2db1ccd82 -->
<g id="edge22" class="edge">
<title>96ea3f8604104598a60ae319dd0a81fd&#45;&gt;55598df382fb459989678cf2db1ccd82</title>
<path fill="none" stroke="#7b8894" d="M875,-276.53C875,-260.95 875,-244.54 875,-228.63"/>
<polygon fill="#7b8894" stroke="#7b8894" points="878.5,-228.68 875,-218.68 871.5,-228.68 878.5,-228.68"/>
</g>
<!-- 05f320fcc94743269263069b09be393b -->
<g id="node18" class="node">
<title>05f320fcc94743269263069b09be393b</title>
<image xlink:href="C:\Users\admin\AppData\Roaming\Python\Python314\site-packages\resources/onprem/certificates\lets-encrypt.png" width="100.8px" height="100.8px" preserveAspectRatio="xMinYMin meet" x="755.6" y="-1382.15"/>
<text xml:space="preserve" text-anchor="middle" x="806" y="-1269.05" font-family="Sans-Serif" font-size="12.00" fill="#2d3436">certbot</text>
<text xml:space="preserve" text-anchor="middle" x="806" y="-1253.3" font-family="Sans-Serif" font-size="12.00" fill="#2d3436">(host process, ngoai Docker)</text>
</g>
<!-- ad0fa458351e455abbc00431685cba34 -->
<g id="node19" class="node">
<title>ad0fa458351e455abbc00431685cba34</title>
<image xlink:href="C:\Users\admin\AppData\Roaming\Python\Python314\site-packages\resources/generic/storage\storage.png" width="100.8px" height="100.8px" preserveAspectRatio="xMinYMin meet" x="755.6" y="-1127.65"/>
<text xml:space="preserve" text-anchor="middle" x="806" y="-1014.55" font-family="Sans-Serif" font-size="12.00" fill="#2d3436">/etc/letsencrypt</text>
<text xml:space="preserve" text-anchor="middle" x="806" y="-998.8" font-family="Sans-Serif" font-size="12.00" fill="#2d3436">(host bind mount, ro)</text>
</g>
<!-- 05f320fcc94743269263069b09be393b&#45;&gt;ad0fa458351e455abbc00431685cba34 -->
<g id="edge23" class="edge">
<title>05f320fcc94743269263069b09be393b&#45;&gt;ad0fa458351e455abbc00431685cba34</title>
<path fill="none" stroke="#7b8894" d="M806,-1249.12C806,-1224.27 806,-1196.77 806,-1171.23"/>
<polygon fill="#7b8894" stroke="#7b8894" points="809.5,-1171.55 806,-1161.55 802.5,-1171.55 809.5,-1171.55"/>
<text xml:space="preserve" text-anchor="middle" x="823.62" y="-1193.2" font-family="Sans-Serif" font-size="13.00" fill="#2d3436">renew</text>
</g>
<!-- 3cdc46cdf7f94e698d03be4f2892a8cf -->
<g id="node20" class="node">
<title>3cdc46cdf7f94e698d03be4f2892a8cf</title>
<image xlink:href="C:\Users\admin\AppData\Roaming\Python\Python314\site-packages\resources/onprem/network\nginx.png" width="100.8px" height="100.8px" preserveAspectRatio="xMinYMin meet" x="755.6" y="-873.15"/>
<text xml:space="preserve" text-anchor="middle" x="806" y="-761.4" font-family="Sans-Serif" font-size="12.00" fill="#2d3436">nginx</text>
<text xml:space="preserve" text-anchor="middle" x="806" y="-745.65" font-family="Sans-Serif" font-size="12.00" fill="#2d3436">HTTPS :443 + :80&#45;&gt;301</text>
<text xml:space="preserve" text-anchor="middle" x="806" y="-729.9" font-family="Sans-Serif" font-size="12.00" fill="#2d3436">(nginx/prod/vdt.conf override)</text>
</g>
<!-- ad0fa458351e455abbc00431685cba34&#45;&gt;3cdc46cdf7f94e698d03be4f2892a8cf -->
<g id="edge24" class="edge">
<title>ad0fa458351e455abbc00431685cba34&#45;&gt;3cdc46cdf7f94e698d03be4f2892a8cf</title>
<path fill="none" stroke="#7b8894" d="M806,-994.62C806,-974.34 806,-952.31 806,-931.01"/>
<polygon fill="#7b8894" stroke="#7b8894" points="809.5,-931.13 806,-921.13 802.5,-931.13 809.5,-931.13"/>
<text xml:space="preserve" text-anchor="middle" x="834.5" y="-953.1" font-family="Sans-Serif" font-size="13.00" fill="#2d3436">mount :ro</text>
</g>
<!-- 3cdc46cdf7f94e698d03be4f2892a8cf&#45;&gt;d3a41999642e409385597ce7d779bcfb -->
<g id="edge25" class="edge">
<title>3cdc46cdf7f94e698d03be4f2892a8cf&#45;&gt;d3a41999642e409385597ce7d779bcfb</title>
<path fill="none" stroke="#7b8894" d="M778.44,-725.69C772.44,-704.8 766.17,-682.94 760.41,-662.84"/>
<polygon fill="#7b8894" stroke="#7b8894" points="763.8,-661.97 757.68,-653.33 757.07,-663.9 763.8,-661.97"/>
</g>
<!-- 3cdc46cdf7f94e698d03be4f2892a8cf&#45;&gt;575e5202979d482083fdf54dfce2c43e -->
<g id="edge26" class="edge">
<title>3cdc46cdf7f94e698d03be4f2892a8cf&#45;&gt;575e5202979d482083fdf54dfce2c43e</title>
<path fill="none" stroke="#7b8894" d="M833.97,-725.69C840.05,-704.8 846.41,-682.94 852.27,-662.84"/>
<polygon fill="#7b8894" stroke="#7b8894" points="855.6,-663.9 855.04,-653.33 848.88,-661.95 855.6,-663.9"/>
</g>
</g>
</svg>
