<?xml version="1.0" encoding="UTF-8" standalone="no"?>
<!DOCTYPE svg PUBLIC "-//W3C//DTD SVG 1.1//EN"
 "http://www.w3.org/Graphics/SVG/1.1/DTD/svg11.dtd">
<!-- Generated by graphviz version 15.1.0 (20260618.0150)
 -->
<!-- Title: VDT WebRTC &#45; Redis Cross&#45;Instance Routing Pages: 1 -->
<svg width="5824pt" height="3847pt"
 viewBox="0.00 0.00 5824.00 3847.00" xmlns="http://www.w3.org/2000/svg" xmlns:xlink="http://www.w3.org/1999/xlink">
<g id="graph0" class="graph" transform="scale(4.16667 4.16667) rotate(0) translate(28.8 894.55)">
<title>VDT WebRTC &#45; Redis Cross&#45;Instance Routing</title>
<polygon fill="white" stroke="none" points="-28.8,28.8 -28.8,-894.55 1369,-894.55 1369,28.8 -28.8,28.8"/>
<text xml:space="preserve" text-anchor="middle" x="670.1" y="-10.85" font-family="Sans-Serif" font-size="22.00" fill="#2d3436">VDT WebRTC &#45; Redis Cross&#45;Instance Routing</text>
<g id="clust1" class="cluster">
<title>cluster_backend&#45;1</title>
<path fill="#e5f5fd" stroke="#aeb6be" d="M365.05,-651.75C365.05,-651.75 1320.2,-651.75 1320.2,-651.75 1326.2,-651.75 1332.2,-657.75 1332.2,-663.75 1332.2,-663.75 1332.2,-845.75 1332.2,-845.75 1332.2,-851.75 1326.2,-857.75 1320.2,-857.75 1320.2,-857.75 365.05,-857.75 365.05,-857.75 359.05,-857.75 353.05,-851.75 353.05,-845.75 353.05,-845.75 353.05,-663.75 353.05,-663.75 353.05,-657.75 359.05,-651.75 365.05,-651.75"/>
<text xml:space="preserve" text-anchor="middle" x="388.43" y="-842.35" font-family="Sans-Serif" font-size="12.00" fill="#2d3436">backend&#45;1</text>
</g>
<g id="clust2" class="cluster">
<title>cluster_backend&#45;2</title>
<path fill="#e5f5fd" stroke="#aeb6be" d="M836.35,-43.75C836.35,-43.75 1320.2,-43.75 1320.2,-43.75 1326.2,-43.75 1332.2,-49.75 1332.2,-55.75 1332.2,-55.75 1332.2,-453.75 1332.2,-453.75 1332.2,-459.75 1326.2,-465.75 1320.2,-465.75 1320.2,-465.75 836.35,-465.75 836.35,-465.75 830.35,-465.75 824.35,-459.75 824.35,-453.75 824.35,-453.75 824.35,-55.75 824.35,-55.75 824.35,-49.75 830.35,-43.75 836.35,-43.75"/>
<text xml:space="preserve" text-anchor="middle" x="859.73" y="-450.35" font-family="Sans-Serif" font-size="12.00" fill="#2d3436">backend&#45;2</text>
</g>
<!-- 9d89a91819ce4cf0b36e96be8b321035 -->
<g id="node1" class="node">
<title>9d89a91819ce4cf0b36e96be8b321035</title>
<image xlink:href="C:\Users\admin\AppData\Roaming\Python\Python314\site-packages\resources/onprem/client\users.png" width="100.8px" height="100.8px" preserveAspectRatio="xMinYMin meet" x="8.52651e-14" y="-793.15"/>
<text xml:space="preserve" text-anchor="middle" x="50.4" y="-680.05" font-family="Sans-Serif" font-size="12.00" fill="#2d3436">User A</text>
<text xml:space="preserve" text-anchor="middle" x="50.4" y="-664.3" font-family="Sans-Serif" font-size="12.00" fill="#2d3436">(WS ket noi toi backend&#45;1)</text>
</g>
<!-- 0c401dfa6c2a4f049dbb848a800ba875 -->
<g id="node2" class="node">
<title>0c401dfa6c2a4f049dbb848a800ba875</title>
<image xlink:href="C:\Users\admin\AppData\Roaming\Python\Python314\site-packages\resources/programming/framework\spring.png" width="100.8px" height="100.8px" preserveAspectRatio="xMinYMin meet" x="361.05" y="-793.15"/>
<text xml:space="preserve" text-anchor="middle" x="411.45" y="-680.05" font-family="Sans-Serif" font-size="12.00" fill="#2d3436">PresenceWebSocketHandler</text>
<text xml:space="preserve" text-anchor="middle" x="411.45" y="-664.3" font-family="Sans-Serif" font-size="12.00" fill="#2d3436">(WS entrypoint)</text>
</g>
<!-- 9d89a91819ce4cf0b36e96be8b321035&#45;&gt;0c401dfa6c2a4f049dbb848a800ba875 -->
<g id="edge5" class="edge">
<title>9d89a91819ce4cf0b36e96be8b321035&#45;&gt;0c401dfa6c2a4f049dbb848a800ba875</title>
<path fill="none" stroke="blue" d="M100.57,-742.75C165.52,-742.75 279.86,-742.75 350.01,-742.75"/>
<polygon fill="blue" stroke="blue" points="349.78,-746.25 359.78,-742.75 349.78,-739.25 349.78,-746.25"/>
<text xml:space="preserve" text-anchor="middle" x="230.93" y="-746.9" font-family="Sans-Serif" font-size="13.00" fill="#2d3436">1. sdp/ice&#45;candidate/call&#45;invite...</text>
</g>
<!-- e37eef8581094dec8c898172bfaf2f5e -->
<g id="node3" class="node">
<title>e37eef8581094dec8c898172bfaf2f5e</title>
<image xlink:href="C:\Users\admin\AppData\Roaming\Python\Python314\site-packages\resources/onprem/compute\server.png" width="100.8px" height="100.8px" preserveAspectRatio="xMinYMin meet" x="832.35" y="-793.15"/>
<text xml:space="preserve" text-anchor="middle" x="882.75" y="-680.05" font-family="Sans-Serif" font-size="12.00" fill="#2d3436">RedisMessageRouter</text>
<text xml:space="preserve" text-anchor="middle" x="882.75" y="-664.3" font-family="Sans-Serif" font-size="12.00" fill="#2d3436">(sendToUser)</text>
</g>
<!-- 0c401dfa6c2a4f049dbb848a800ba875&#45;&gt;e37eef8581094dec8c898172bfaf2f5e -->
<g id="edge6" class="edge">
<title>0c401dfa6c2a4f049dbb848a800ba875&#45;&gt;e37eef8581094dec8c898172bfaf2f5e</title>
<path fill="none" stroke="blue" d="M461.79,-742.75C548.31,-742.75 727.13,-742.75 821.07,-742.75"/>
<polygon fill="blue" stroke="blue" points="820.86,-746.25 830.86,-742.75 820.86,-739.25 820.86,-746.25"/>
<text xml:space="preserve" text-anchor="middle" x="647.1" y="-763.4" font-family="Sans-Serif" font-size="13.00" fill="#2d3436">2. router.sendToUser(userB, msg)</text>
<text xml:space="preserve" text-anchor="middle" x="647.1" y="-746.9" font-family="Sans-Serif" font-size="13.00" fill="#2d3436">(truc tiep hoac qua CallService)</text>
</g>
<!-- bf84d3174aca448699d8decba8fa9f0c -->
<g id="node4" class="node">
<title>bf84d3174aca448699d8decba8fa9f0c</title>
<image xlink:href="C:\Users\admin\AppData\Roaming\Python\Python314\site-packages\resources/onprem/compute\server.png" width="100.8px" height="100.8px" preserveAspectRatio="xMinYMin meet" x="1223.4" y="-793.15"/>
<text xml:space="preserve" text-anchor="middle" x="1273.8" y="-680.05" font-family="Sans-Serif" font-size="12.00" fill="#2d3436">SessionRegistry</text>
<text xml:space="preserve" text-anchor="middle" x="1273.8" y="-664.3" font-family="Sans-Serif" font-size="12.00" fill="#2d3436">(local, in&#45;memory)</text>
</g>
<!-- e37eef8581094dec8c898172bfaf2f5e&#45;&gt;bf84d3174aca448699d8decba8fa9f0c -->
<g id="edge7" class="edge">
<title>e37eef8581094dec8c898172bfaf2f5e&#45;&gt;bf84d3174aca448699d8decba8fa9f0c</title>
<path fill="none" stroke="blue" d="M933.02,-742.75C1004.11,-742.75 1135.31,-742.75 1212.22,-742.75"/>
<polygon fill="blue" stroke="blue" points="1212.11,-746.25 1222.11,-742.75 1212.11,-739.25 1212.11,-746.25"/>
<text xml:space="preserve" text-anchor="middle" x="1078.28" y="-746.9" font-family="Sans-Serif" font-size="13.00" fill="#2d3436">3. sessionRegistry.get(userB) &#45;&gt; MISS</text>
</g>
<!-- 5c3944bc1b9343f3abb612400e498e90 -->
<g id="node5" class="node">
<title>5c3944bc1b9343f3abb612400e498e90</title>
<image xlink:href="C:\Users\admin\AppData\Roaming\Python\Python314\site-packages\resources/onprem/inmemory\redis.png" width="100.8px" height="100.8px" preserveAspectRatio="xMinYMin meet" x="1223.4" y="-592.15"/>
<text xml:space="preserve" text-anchor="middle" x="1273.8" y="-477.7" font-family="Sans-Serif" font-size="12.00" fill="#2d3436">Redis</text>
</g>
<!-- e37eef8581094dec8c898172bfaf2f5e&#45;&gt;5c3944bc1b9343f3abb612400e498e90 -->
<g id="edge8" class="edge">
<title>e37eef8581094dec8c898172bfaf2f5e&#45;&gt;5c3944bc1b9343f3abb612400e498e90</title>
<path fill="none" stroke="blue" d="M933.13,-726.2C1017.73,-697.79 1181.91,-642.42 1187.4,-638.75 1197.32,-632.11 1206.81,-624.04 1215.62,-615.43"/>
<polygon fill="blue" stroke="blue" points="1217.94,-618.05 1222.44,-608.46 1212.94,-613.15 1217.94,-618.05"/>
<text xml:space="preserve" text-anchor="middle" x="1078.28" y="-717.4" font-family="Sans-Serif" font-size="13.00" fill="#2d3436">4. GET route:userB</text>
</g>
<!-- e37eef8581094dec8c898172bfaf2f5e&#45;&gt;5c3944bc1b9343f3abb612400e498e90 -->
<g id="edge10" class="edge">
<title>e37eef8581094dec8c898172bfaf2f5e&#45;&gt;5c3944bc1b9343f3abb612400e498e90</title>
<path fill="none" stroke="blue" d="M914.64,-660.11C927.81,-635.2 945.69,-610.15 969.15,-593.75 988.78,-580.03 1129.53,-560.06 1212.34,-549.3"/>
<polygon fill="blue" stroke="blue" points="1212.66,-552.79 1222.13,-548.04 1211.76,-545.84 1212.66,-552.79"/>
<text xml:space="preserve" text-anchor="middle" x="1078.28" y="-614.4" font-family="Sans-Serif" font-size="13.00" fill="#2d3436">6. PUBLISH inst:backend&#45;2</text>
<text xml:space="preserve" text-anchor="middle" x="1078.28" y="-597.9" font-family="Sans-Serif" font-size="13.00" fill="#2d3436">{userId, payload}</text>
</g>
<!-- 5c3944bc1b9343f3abb612400e498e90&#45;&gt;e37eef8581094dec8c898172bfaf2f5e -->
<g id="edge9" class="edge">
<title>5c3944bc1b9343f3abb612400e498e90&#45;&gt;e37eef8581094dec8c898172bfaf2f5e</title>
<path fill="none" stroke="blue" d="M1223.5,-522.37C1159.05,-500.53 1045.41,-474.35 969.15,-526.25 928.57,-553.87 907.27,-604.03 896.09,-649.12"/>
<polygon fill="blue" stroke="blue" points="892.73,-648.14 893.87,-658.68 899.55,-649.73 892.73,-648.14"/>
<text xml:space="preserve" text-anchor="middle" x="1078.28" y="-530.4" font-family="Sans-Serif" font-size="13.00" fill="#2d3436">5. &#45;&gt; &quot;backend&#45;2&quot;</text>
</g>
<!-- dcf1503b2ee8494fa88720d8a7cee55e -->
<g id="node6" class="node">
<title>dcf1503b2ee8494fa88720d8a7cee55e</title>
<image xlink:href="C:\Users\admin\AppData\Roaming\Python\Python314\site-packages\resources/onprem/compute\server.png" width="100.8px" height="100.8px" preserveAspectRatio="xMinYMin meet" x="832.35" y="-401.15"/>
<text xml:space="preserve" text-anchor="middle" x="882.75" y="-288.05" font-family="Sans-Serif" font-size="12.00" fill="#2d3436">RoutingMessageListener</text>
<text xml:space="preserve" text-anchor="middle" x="882.75" y="-272.3" font-family="Sans-Serif" font-size="12.00" fill="#2d3436">(subscriber inst:backend&#45;2)</text>
</g>
<!-- 5c3944bc1b9343f3abb612400e498e90&#45;&gt;dcf1503b2ee8494fa88720d8a7cee55e -->
<g id="edge11" class="edge">
<title>5c3944bc1b9343f3abb612400e498e90&#45;&gt;dcf1503b2ee8494fa88720d8a7cee55e</title>
<path fill="none" stroke="blue" d="M1223.43,-483.31C1212.39,-472.61 1200.14,-462.29 1187.4,-454.25 1110.53,-405.74 1008.27,-377.01 944.22,-362.57"/>
<polygon fill="blue" stroke="blue" points="945.11,-359.18 934.59,-360.44 943.6,-366.01 945.11,-359.18"/>
<text xml:space="preserve" text-anchor="middle" x="1078.28" y="-458.4" font-family="Sans-Serif" font-size="13.00" fill="#2d3436">7. onMessage (subscribed)</text>
</g>
<!-- 521aa3f5c71847ce8426e50ef0ebf481 -->
<g id="node7" class="node">
<title>521aa3f5c71847ce8426e50ef0ebf481</title>
<image xlink:href="C:\Users\admin\AppData\Roaming\Python\Python314\site-packages\resources/onprem/compute\server.png" width="100.8px" height="100.8px" preserveAspectRatio="xMinYMin meet" x="1223.4" y="-221.15"/>
<text xml:space="preserve" text-anchor="middle" x="1273.8" y="-108.05" font-family="Sans-Serif" font-size="12.00" fill="#2d3436">SessionRegistry</text>
<text xml:space="preserve" text-anchor="middle" x="1273.8" y="-92.3" font-family="Sans-Serif" font-size="12.00" fill="#2d3436">(local, in&#45;memory)</text>
</g>
<!-- dcf1503b2ee8494fa88720d8a7cee55e&#45;&gt;521aa3f5c71847ce8426e50ef0ebf481 -->
<g id="edge12" class="edge">
<title>dcf1503b2ee8494fa88720d8a7cee55e&#45;&gt;521aa3f5c71847ce8426e50ef0ebf481</title>
<path fill="none" stroke="blue" d="M933.02,-285.3C943.91,-274.03 956.12,-263.35 969.15,-255.25 989.95,-242.32 1130.15,-206.15 1212.59,-185.57"/>
<polygon fill="blue" stroke="blue" points="1213.24,-189.01 1222.1,-183.2 1211.55,-182.22 1213.24,-189.01"/>
<text xml:space="preserve" text-anchor="middle" x="1078.28" y="-259.4" font-family="Sans-Serif" font-size="13.00" fill="#2d3436">8. sessionRegistry.get(userB) &#45;&gt; HIT</text>
</g>
<!-- aac14e3e9a584f7e98009affefd449d4 -->
<g id="node9" class="node">
<title>aac14e3e9a584f7e98009affefd449d4</title>
<image xlink:href="C:\Users\admin\AppData\Roaming\Python\Python314\site-packages\resources/onprem/client\users.png" width="100.8px" height="100.8px" preserveAspectRatio="xMinYMin meet" x="361.05" y="-257.15"/>
<text xml:space="preserve" text-anchor="middle" x="411.45" y="-144.05" font-family="Sans-Serif" font-size="12.00" fill="#2d3436">User B</text>
<text xml:space="preserve" text-anchor="middle" x="411.45" y="-128.3" font-family="Sans-Serif" font-size="12.00" fill="#2d3436">(WS ket noi toi backend&#45;2)</text>
</g>
<!-- dcf1503b2ee8494fa88720d8a7cee55e&#45;&gt;aac14e3e9a584f7e98009affefd449d4 -->
<g id="edge13" class="edge">
<title>dcf1503b2ee8494fa88720d8a7cee55e&#45;&gt;aac14e3e9a584f7e98009affefd449d4</title>
<path fill="none" stroke="blue" d="M832.37,-335.6C745.64,-308.99 566.27,-253.95 472.51,-225.18"/>
<polygon fill="blue" stroke="blue" points="473.82,-221.92 463.23,-222.33 471.77,-228.61 473.82,-221.92"/>
<text xml:space="preserve" text-anchor="middle" x="647.1" y="-343.85" font-family="Sans-Serif" font-size="13.00" fill="#2d3436">9. session.sendMessage(payload)</text>
<text xml:space="preserve" text-anchor="middle" x="647.1" y="-327.35" font-family="Sans-Serif" font-size="13.00" fill="#2d3436">(truc tiep, KHONG qua PresenceWebSocketHandler)</text>
</g>
<!-- 4f44e19ff8e945d38a57d5186ba42f48 -->
<g id="node8" class="node">
<title>4f44e19ff8e945d38a57d5186ba42f48</title>
<image xlink:href="C:\Users\admin\AppData\Roaming\Python\Python314\site-packages\resources/programming/framework\spring.png" width="100.8px" height="100.8px" preserveAspectRatio="xMinYMin meet" x="832.35" y="-185.15"/>
<text xml:space="preserve" text-anchor="middle" x="882.75" y="-72.05" font-family="Sans-Serif" font-size="12.00" fill="#2d3436">PresenceWebSocketHandler</text>
<text xml:space="preserve" text-anchor="middle" x="882.75" y="-56.3" font-family="Sans-Serif" font-size="12.00" fill="#2d3436">(WS entrypoint)</text>
</g>
<!-- 4f44e19ff8e945d38a57d5186ba42f48&#45;&gt;5c3944bc1b9343f3abb612400e498e90 -->
<g id="edge3" class="edge">
<title>4f44e19ff8e945d38a57d5186ba42f48&#45;&gt;5c3944bc1b9343f3abb612400e498e90</title>
<path fill="none" stroke="gray" stroke-dasharray="5,2" d="M917.95,-217.26C930.98,-240.31 947.94,-263.48 969.15,-279.75 1049.01,-341.02 1116.2,-269.1 1187.4,-340.25 1227.02,-379.84 1201.81,-411.43 1220.77,-462.9"/>
<polygon fill="gray" stroke="gray" points="1217.52,-464.19 1224.61,-472.07 1223.98,-461.49 1217.52,-464.19"/>
<text xml:space="preserve" text-anchor="middle" x="1078.28" y="-344.4" font-family="Sans-Serif" font-size="13.00" fill="#2d3436">SET route:userB=backend&#45;2 EX 60s</text>
</g>
<!-- 4f44e19ff8e945d38a57d5186ba42f48&#45;&gt;521aa3f5c71847ce8426e50ef0ebf481 -->
<g id="edge2" class="edge">
<title>4f44e19ff8e945d38a57d5186ba42f48&#45;&gt;521aa3f5c71847ce8426e50ef0ebf481</title>
<path fill="none" stroke="gray" stroke-dasharray="5,2" d="M933.02,-139.31C1004.11,-145.89 1135.31,-158.03 1212.22,-165.14"/>
<polygon fill="gray" stroke="gray" points="1211.83,-168.62 1222.11,-166.06 1212.48,-161.65 1211.83,-168.62"/>
<text xml:space="preserve" text-anchor="middle" x="1078.28" y="-166.2" font-family="Sans-Serif" font-size="13.00" fill="#2d3436">register(userB, session)</text>
</g>
<!-- aac14e3e9a584f7e98009affefd449d4&#45;&gt;4f44e19ff8e945d38a57d5186ba42f48 -->
<g id="edge1" class="edge">
<title>aac14e3e9a584f7e98009affefd449d4&#45;&gt;4f44e19ff8e945d38a57d5186ba42f48</title>
<path fill="none" stroke="gray" stroke-dasharray="5,2" d="M461.39,-150.76C472.38,-141.56 484.72,-133.37 497.85,-128.25 605.59,-86.26 743.59,-104.16 821.37,-120.07"/>
<polygon fill="gray" stroke="gray" points="820.41,-123.44 830.92,-122.08 821.85,-116.59 820.41,-123.44"/>
<text xml:space="preserve" text-anchor="middle" x="647.1" y="-132.4" font-family="Sans-Serif" font-size="13.00" fill="#2d3436">connect</text>
</g>
<!-- aac14e3e9a584f7e98009affefd449d4&#45;&gt;4f44e19ff8e945d38a57d5186ba42f48 -->
<g id="edge4" class="edge">
<title>aac14e3e9a584f7e98009affefd449d4&#45;&gt;4f44e19ff8e945d38a57d5186ba42f48</title>
<path fill="none" stroke="gray" stroke-dasharray="5,2" d="M461.71,-200.91C534.92,-191.98 676.69,-173.75 796.35,-152.75 804.55,-151.31 813.16,-149.66 821.63,-147.96"/>
<polygon fill="gray" stroke="gray" points="822.06,-151.44 831.15,-146 820.65,-144.58 822.06,-151.44"/>
<text xml:space="preserve" text-anchor="middle" x="647.1" y="-200.47" font-family="Sans-Serif" font-size="13.00" fill="#2d3436">ping &lt;60s &#45;&gt; EXPIRE route:userB</text>
</g>
</g>
</svg>
