<?xml version="1.0" encoding="UTF-8" standalone="no"?>
<!DOCTYPE svg PUBLIC "-//W3C//DTD SVG 1.1//EN"
 "http://www.w3.org/Graphics/SVG/1.1/DTD/svg11.dtd">
<!-- Generated by graphviz version 15.1.0 (20260618.0150)
 -->
<!-- Title: VDT WebRTC &#45; Architecture Pages: 1 -->
<svg width="3332pt" height="5965pt"
 viewBox="0.00 0.00 3332.00 5965.00" xmlns="http://www.w3.org/2000/svg" xmlns:xlink="http://www.w3.org/1999/xlink">
<g id="graph0" class="graph" transform="scale(4.16667 4.16667) rotate(0) translate(28.8 1402.8)">
<title>VDT WebRTC &#45; Architecture</title>
<polygon fill="white" stroke="none" points="-28.8,28.8 -28.8,-1402.8 770.8,-1402.8 770.8,28.8 -28.8,28.8"/>
<text xml:space="preserve" text-anchor="middle" x="371" y="-10.85" font-family="Sans-Serif" font-size="22.00" fill="#2d3436">VDT WebRTC &#45; Architecture</text>
<g id="clust1" class="cluster">
<title>cluster_TURN fallback (chi dung khi P2P truc tiep that bai)</title>
<path fill="#e5f5fd" stroke="#aeb6be" d="M20,-697.45C20,-697.45 278,-697.45 278,-697.45 284,-697.45 290,-703.45 290,-709.45 290,-709.45 290,-890.8 290,-890.8 290,-896.8 284,-902.8 278,-902.8 278,-902.8 20,-902.8 20,-902.8 14,-902.8 8,-896.8 8,-890.8 8,-890.8 8,-709.45 8,-709.45 8,-703.45 14,-697.45 20,-697.45"/>
<text xml:space="preserve" text-anchor="middle" x="149.12" y="-887.4" font-family="Sans-Serif" font-size="12.00" fill="#2d3436">TURN fallback (chi dung khi P2P truc tiep that bai)</text>
</g>
<g id="clust2" class="cluster">
<title>cluster_Signaling (Spring Boot)</title>
<path fill="#e5f5fd" stroke="#aeb6be" d="M279,-486.9C279,-486.9 515,-486.9 515,-486.9 521,-486.9 527,-492.9 527,-498.9 527,-498.9 527,-651.45 527,-651.45 527,-657.45 521,-663.45 515,-663.45 515,-663.45 279,-663.45 279,-663.45 273,-663.45 267,-657.45 267,-651.45 267,-651.45 267,-498.9 267,-498.9 267,-492.9 273,-486.9 279,-486.9"/>
<text xml:space="preserve" text-anchor="middle" x="336.88" y="-648.05" font-family="Sans-Serif" font-size="12.00" fill="#2d3436">Signaling (Spring Boot)</text>
</g>
<g id="clust3" class="cluster">
<title>cluster_Data &amp; Messaging</title>
<path fill="#e5f5fd" stroke="#aeb6be" d="M65,-247.55C65,-247.55 578,-247.55 578,-247.55 584,-247.55 590,-253.55 590,-259.55 590,-259.55 590,-440.9 590,-440.9 590,-446.9 584,-452.9 578,-452.9 578,-452.9 65,-452.9 65,-452.9 59,-452.9 53,-446.9 53,-440.9 53,-440.9 53,-259.55 53,-259.55 53,-253.55 59,-247.55 65,-247.55"/>
<text xml:space="preserve" text-anchor="middle" x="108.25" y="-437.5" font-family="Sans-Serif" font-size="12.00" fill="#2d3436">Data &amp; Messaging</text>
</g>
<g id="clust4" class="cluster">
<title>cluster_Observability</title>
<path fill="#e5f5fd" stroke="#aeb6be" d="M630,-43.75C630,-43.75 722,-43.75 722,-43.75 728,-43.75 734,-49.75 734,-55.75 734,-55.75 734,-426.5 734,-426.5 734,-432.5 728,-438.5 722,-438.5 722,-438.5 630,-438.5 630,-438.5 624,-438.5 618,-432.5 618,-426.5 618,-426.5 618,-55.75 618,-55.75 618,-49.75 624,-43.75 630,-43.75"/>
<text xml:space="preserve" text-anchor="middle" x="660.12" y="-423.1" font-family="Sans-Serif" font-size="12.00" fill="#2d3436">Observability</text>
</g>
<!-- 1b18d67a85924d9fa9bdd9c1667f9aa8 -->
<g id="node1" class="node">
<title>1b18d67a85924d9fa9bdd9c1667f9aa8</title>
<image xlink:href="C:\Users\admin\AppData\Roaming\Python\Python314\site-packages\resources/onprem/client\users.png" width="100.8px" height="100.8px" preserveAspectRatio="xMinYMin meet" x="286.6" y="-1341.6"/>
<text xml:space="preserve" text-anchor="middle" x="337" y="-1229.05" font-family="Sans-Serif" font-size="13.00" fill="#2d3436">User A</text>
<text xml:space="preserve" text-anchor="middle" x="337" y="-1212.55" font-family="Sans-Serif" font-size="13.00" fill="#2d3436">(browser)</text>
</g>
<!-- 088f63172bf542cfb7a403b9a68ec204 -->
<g id="node2" class="node">
<title>088f63172bf542cfb7a403b9a68ec204</title>
<image xlink:href="C:\Users\admin\AppData\Roaming\Python\Python314\site-packages\resources/onprem/client\users.png" width="100.8px" height="100.8px" preserveAspectRatio="xMinYMin meet" x="286.6" y="-1093.5"/>
<text xml:space="preserve" text-anchor="middle" x="337" y="-980.95" font-family="Sans-Serif" font-size="13.00" fill="#2d3436">User B</text>
<text xml:space="preserve" text-anchor="middle" x="337" y="-964.45" font-family="Sans-Serif" font-size="13.00" fill="#2d3436">(browser)</text>
</g>
<!-- 1b18d67a85924d9fa9bdd9c1667f9aa8&#45;&gt;088f63172bf542cfb7a403b9a68ec204 -->
<g id="edge5" class="edge">
<title>1b18d67a85924d9fa9bdd9c1667f9aa8&#45;&gt;088f63172bf542cfb7a403b9a68ec204</title>
<path fill="none" stroke="green" stroke-width="2" d="M337,-1208.59C337,-1185.63 337,-1160.48 337,-1136.91"/>
<polygon fill="green" stroke="green" stroke-width="2" points="340.5,-1138.51 337,-1128.51 333.5,-1138.51 340.5,-1138.51"/>
<text xml:space="preserve" text-anchor="middle" x="389.88" y="-1163.05" font-family="Sans-Serif" font-size="13.00" fill="#2d3436">P2P media (SRTP)</text>
</g>
<!-- b986cd0f113149af9687278068f839c4 -->
<g id="node3" class="node">
<title>b986cd0f113149af9687278068f839c4</title>
<image xlink:href="C:\Users\admin\AppData\Roaming\Python\Python314\site-packages\resources/onprem/network\internet.png" width="100.8px" height="100.8px" preserveAspectRatio="xMinYMin meet" x="93.6" y="-838.65"/>
<text xml:space="preserve" text-anchor="middle" x="144" y="-726.1" font-family="Sans-Serif" font-size="13.00" fill="#2d3436">coturn</text>
<text xml:space="preserve" text-anchor="middle" x="144" y="-709.6" font-family="Sans-Serif" font-size="13.00" fill="#2d3436">(STUN/TURN)</text>
</g>
<!-- 1b18d67a85924d9fa9bdd9c1667f9aa8&#45;&gt;b986cd0f113149af9687278068f839c4 -->
<g id="edge6" class="edge">
<title>1b18d67a85924d9fa9bdd9c1667f9aa8&#45;&gt;b986cd0f113149af9687278068f839c4</title>
<path fill="none" stroke="#7b8894" stroke-dasharray="5,2" d="M286.75,-1264.49C239.65,-1237.26 172.21,-1189.41 142.75,-1125.9 107.26,-1049.4 112.17,-952.2 123.22,-881.93"/>
<polygon fill="#7b8894" stroke="#7b8894" points="126.62,-882.82 124.79,-872.38 119.71,-881.68 126.62,-882.82"/>
<text xml:space="preserve" text-anchor="middle" x="203.88" y="-1039" font-family="Sans-Serif" font-size="13.00" fill="#2d3436">TURN relay (fallback)</text>
</g>
<!-- e65346e29a3c43ceb3e3412b733bb9b2 -->
<g id="node4" class="node">
<title>e65346e29a3c43ceb3e3412b733bb9b2</title>
<image xlink:href="C:\Users\admin\AppData\Roaming\Python\Python314\site-packages\resources/onprem/network\nginx.png" width="100.8px" height="100.8px" preserveAspectRatio="xMinYMin meet" x="341.6" y="-838.65"/>
<text xml:space="preserve" text-anchor="middle" x="392" y="-726.1" font-family="Sans-Serif" font-size="13.00" fill="#2d3436">nginx</text>
<text xml:space="preserve" text-anchor="middle" x="392" y="-709.6" font-family="Sans-Serif" font-size="13.00" fill="#2d3436">(LB + reverse proxy + SPA)</text>
</g>
<!-- 1b18d67a85924d9fa9bdd9c1667f9aa8&#45;&gt;e65346e29a3c43ceb3e3412b733bb9b2 -->
<g id="edge1" class="edge">
<title>1b18d67a85924d9fa9bdd9c1667f9aa8&#45;&gt;e65346e29a3c43ceb3e3412b733bb9b2</title>
<path fill="none" stroke="#7b8894" d="M387.27,-1250.93C410.26,-1230.61 436.09,-1204.08 453,-1175.4 511.2,-1076.71 507.3,-1040.79 523,-927.3 529.37,-881.29 489.23,-844.18 451.75,-820.07"/>
<polygon fill="#7b8894" stroke="#7b8894" points="453.94,-817.31 443.6,-815.02 450.26,-823.26 453.94,-817.31"/>
<text xml:space="preserve" text-anchor="middle" x="605" y="-1039" font-family="Sans-Serif" font-size="13.00" fill="#2d3436">WSS signaling + HTTPS REST</text>
</g>
<!-- 088f63172bf542cfb7a403b9a68ec204&#45;&gt;b986cd0f113149af9687278068f839c4 -->
<g id="edge7" class="edge">
<title>088f63172bf542cfb7a403b9a68ec204&#45;&gt;b986cd0f113149af9687278068f839c4</title>
<path fill="none" stroke="#7b8894" stroke-dasharray="5,2" d="M286.77,-998.84C253.58,-969.96 215.06,-935.78 208.75,-927.3 198.22,-913.14 188.78,-896.99 180.58,-880.86"/>
<polygon fill="#7b8894" stroke="#7b8894" points="183.86,-879.61 176.3,-872.18 177.59,-882.7 183.86,-879.61"/>
<text xml:space="preserve" text-anchor="middle" x="269.88" y="-914.95" font-family="Sans-Serif" font-size="13.00" fill="#2d3436">TURN relay (fallback)</text>
</g>
<!-- 088f63172bf542cfb7a403b9a68ec204&#45;&gt;e65346e29a3c43ceb3e3412b733bb9b2 -->
<g id="edge2" class="edge">
<title>088f63172bf542cfb7a403b9a68ec204&#45;&gt;e65346e29a3c43ceb3e3412b733bb9b2</title>
<path fill="none" stroke="#7b8894" d="M337.07,-960.3C338.24,-943.78 340.3,-926.63 343.75,-910.8 345.84,-901.21 348.6,-891.39 351.75,-881.7"/>
<polygon fill="#7b8894" stroke="#7b8894" points="355.05,-882.85 354.96,-872.26 348.42,-880.6 355.05,-882.85"/>
<text xml:space="preserve" text-anchor="middle" x="430.38" y="-914.95" font-family="Sans-Serif" font-size="13.00" fill="#2d3436">WSS signaling + HTTPS REST</text>
</g>
<!-- c025a96c4e424a10b7fbc1def9d7d00b -->
<g id="node5" class="node">
<title>c025a96c4e424a10b7fbc1def9d7d00b</title>
<image xlink:href="C:\Users\admin\AppData\Roaming\Python\Python314\site-packages\resources/programming/framework\spring.png" width="100.8px" height="100.8px" preserveAspectRatio="xMinYMin meet" x="274.6" y="-613.7"/>
<text xml:space="preserve" text-anchor="middle" x="325" y="-499.05" font-family="Sans-Serif" font-size="13.00" fill="#2d3436">backend&#45;1</text>
</g>
<!-- e65346e29a3c43ceb3e3412b733bb9b2&#45;&gt;c025a96c4e424a10b7fbc1def9d7d00b -->
<g id="edge3" class="edge">
<title>e65346e29a3c43ceb3e3412b733bb9b2&#45;&gt;c025a96c4e424a10b7fbc1def9d7d00b</title>
<path fill="none" stroke="#7b8894" d="M367.43,-705.5C361.23,-684.85 354.58,-662.74 348.43,-642.28"/>
<polygon fill="#7b8894" stroke="#7b8894" points="351.84,-641.45 345.61,-632.88 345.13,-643.46 351.84,-641.45"/>
</g>
<!-- 4f15373f5e4f4641bab1aee2ab7926a6 -->
<g id="node6" class="node">
<title>4f15373f5e4f4641bab1aee2ab7926a6</title>
<image xlink:href="C:\Users\admin\AppData\Roaming\Python\Python314\site-packages\resources/programming/framework\spring.png" width="100.8px" height="100.8px" preserveAspectRatio="xMinYMin meet" x="418.6" y="-613.7"/>
<text xml:space="preserve" text-anchor="middle" x="469" y="-499.05" font-family="Sans-Serif" font-size="13.00" fill="#2d3436">backend&#45;2</text>
</g>
<!-- e65346e29a3c43ceb3e3412b733bb9b2&#45;&gt;4f15373f5e4f4641bab1aee2ab7926a6 -->
<g id="edge4" class="edge">
<title>e65346e29a3c43ceb3e3412b733bb9b2&#45;&gt;4f15373f5e4f4641bab1aee2ab7926a6</title>
<path fill="none" stroke="#7b8894" d="M420.23,-705.5C427.37,-684.85 435,-662.74 442.07,-642.28"/>
<polygon fill="#7b8894" stroke="#7b8894" points="445.37,-643.45 445.32,-632.86 438.75,-641.17 445.37,-643.45"/>
</g>
<!-- f81642d4166d499cb96a735485d64566 -->
<g id="node7" class="node">
<title>f81642d4166d499cb96a735485d64566</title>
<image xlink:href="C:\Users\admin\AppData\Roaming\Python\Python314\site-packages\resources/onprem/database\postgresql.png" width="100.8px" height="100.8px" preserveAspectRatio="xMinYMin meet" x="60.6" y="-388.75"/>
<text xml:space="preserve" text-anchor="middle" x="111" y="-274.1" font-family="Sans-Serif" font-size="13.00" fill="#2d3436">postgres</text>
</g>
<!-- c025a96c4e424a10b7fbc1def9d7d00b&#45;&gt;f81642d4166d499cb96a735485d64566 -->
<g id="edge8" class="edge">
<title>c025a96c4e424a10b7fbc1def9d7d00b&#45;&gt;f81642d4166d499cb96a735485d64566</title>
<path fill="none" stroke="#7b8894" d="M274.81,-530.14C245.91,-510.1 210.06,-482.55 183,-452.9 172.81,-441.73 163.16,-428.94 154.44,-416.07"/>
<polygon fill="#7b8894" stroke="#7b8894" points="157.52,-414.39 149.09,-407.97 151.68,-418.25 157.52,-414.39"/>
</g>
<!-- 1348fdb34342420883b714e4793b477c -->
<g id="node8" class="node">
<title>1348fdb34342420883b714e4793b477c</title>
<image xlink:href="C:\Users\admin\AppData\Roaming\Python\Python314\site-packages\resources/onprem/inmemory\redis.png" width="100.8px" height="100.8px" preserveAspectRatio="xMinYMin meet" x="204.6" y="-388.75"/>
<text xml:space="preserve" text-anchor="middle" x="255" y="-276.2" font-family="Sans-Serif" font-size="13.00" fill="#2d3436">redis</text>
<text xml:space="preserve" text-anchor="middle" x="255" y="-259.7" font-family="Sans-Serif" font-size="13.00" fill="#2d3436">(pub/sub + presence)</text>
</g>
<!-- c025a96c4e424a10b7fbc1def9d7d00b&#45;&gt;1348fdb34342420883b714e4793b477c -->
<g id="edge9" class="edge">
<title>c025a96c4e424a10b7fbc1def9d7d00b&#45;&gt;1348fdb34342420883b714e4793b477c</title>
<path fill="none" stroke="#7b8894" d="M302.67,-495.14C299.06,-484.05 295.39,-472.66 292,-461.9 288.93,-452.17 285.78,-441.99 282.66,-431.84"/>
<polygon fill="#7b8894" stroke="#7b8894" points="286.01,-430.83 279.74,-422.29 279.32,-432.88 286.01,-430.83"/>
</g>
<!-- 3452ab066be842b1851d1615e92e8e6d -->
<g id="node9" class="node">
<title>3452ab066be842b1851d1615e92e8e6d</title>
<image xlink:href="C:\Users\admin\AppData\Roaming\Python\Python314\site-packages\resources/onprem/queue\rabbitmq.png" width="100.8px" height="100.8px" preserveAspectRatio="xMinYMin meet" x="481.6" y="-388.75"/>
<text xml:space="preserve" text-anchor="middle" x="532" y="-276.2" font-family="Sans-Serif" font-size="13.00" fill="#2d3436">rabbitmq</text>
<text xml:space="preserve" text-anchor="middle" x="532" y="-259.7" font-family="Sans-Serif" font-size="13.00" fill="#2d3436">(call&#45;history)</text>
</g>
<!-- c025a96c4e424a10b7fbc1def9d7d00b&#45;&gt;3452ab066be842b1851d1615e92e8e6d -->
<g id="edge10" class="edge">
<title>c025a96c4e424a10b7fbc1def9d7d00b&#45;&gt;3452ab066be842b1851d1615e92e8e6d</title>
<path fill="none" stroke="#7b8894" d="M329.23,-495.06C333.16,-482 339.61,-469.67 350,-460.9 368.73,-445.1 438.97,-465.48 460,-452.9 470.02,-446.91 478.87,-438.92 486.63,-429.95"/>
<polygon fill="#7b8894" stroke="#7b8894" points="489.27,-432.25 492.79,-422.26 483.81,-427.88 489.27,-432.25"/>
</g>
<!-- dfeee1eb95934e588f5440b2c2537ac5 -->
<g id="node10" class="node">
<title>dfeee1eb95934e588f5440b2c2537ac5</title>
<image xlink:href="C:\Users\admin\AppData\Roaming\Python\Python314\site-packages\resources/onprem/monitoring\prometheus.png" width="100.8px" height="100.8px" preserveAspectRatio="xMinYMin meet" x="625.6" y="-388.75"/>
<text xml:space="preserve" text-anchor="middle" x="676" y="-274.1" font-family="Sans-Serif" font-size="13.00" fill="#2d3436">prometheus</text>
</g>
<!-- c025a96c4e424a10b7fbc1def9d7d00b&#45;&gt;dfeee1eb95934e588f5440b2c2537ac5 -->
<g id="edge15" class="edge">
<title>c025a96c4e424a10b7fbc1def9d7d00b&#45;&gt;dfeee1eb95934e588f5440b2c2537ac5</title>
<path fill="none" stroke="#7b8894" stroke-dasharray="1,5" d="M375.15,-501.91C381.99,-496.16 389.32,-490.97 397,-486.9 437.42,-465.49 561.58,-477.72 600,-452.9 614.55,-443.5 626.98,-430.23 637.32,-416.06"/>
<polygon fill="#7b8894" stroke="#7b8894" points="640.15,-418.11 642.95,-407.89 634.39,-414.14 640.15,-418.11"/>
</g>
<!-- 4f15373f5e4f4641bab1aee2ab7926a6&#45;&gt;f81642d4166d499cb96a735485d64566 -->
<g id="edge11" class="edge">
<title>4f15373f5e4f4641bab1aee2ab7926a6&#45;&gt;f81642d4166d499cb96a735485d64566</title>
<path fill="none" stroke="#7b8894" d="M418.88,-501.85C412.03,-496.11 404.69,-490.94 397,-486.9 386.34,-481.31 193.06,-459.51 183,-452.9 168.76,-443.54 156.79,-430.28 146.94,-416.11"/>
<polygon fill="#7b8894" stroke="#7b8894" points="150.02,-414.41 141.61,-407.97 144.16,-418.25 150.02,-414.41"/>
</g>
<!-- 4f15373f5e4f4641bab1aee2ab7926a6&#45;&gt;1348fdb34342420883b714e4793b477c -->
<g id="edge12" class="edge">
<title>4f15373f5e4f4641bab1aee2ab7926a6&#45;&gt;1348fdb34342420883b714e4793b477c</title>
<path fill="none" stroke="#7b8894" d="M460.77,-495.06C457.22,-482.97 452.17,-471.01 445,-460.9 412.87,-415.61 358.03,-383.2 315.51,-363.29"/>
<polygon fill="#7b8894" stroke="#7b8894" points="317.19,-360.21 306.64,-359.25 314.29,-366.58 317.19,-360.21"/>
</g>
<!-- 4f15373f5e4f4641bab1aee2ab7926a6&#45;&gt;3452ab066be842b1851d1615e92e8e6d -->
<g id="edge13" class="edge">
<title>4f15373f5e4f4641bab1aee2ab7926a6&#45;&gt;3452ab066be842b1851d1615e92e8e6d</title>
<path fill="none" stroke="#7b8894" d="M491.91,-495.01C495.43,-483.99 498.92,-472.66 502,-461.9 504.77,-452.23 507.51,-442.1 510.14,-431.96"/>
<polygon fill="#7b8894" stroke="#7b8894" points="513.48,-433.02 512.57,-422.46 506.7,-431.28 513.48,-433.02"/>
</g>
<!-- 4f15373f5e4f4641bab1aee2ab7926a6&#45;&gt;dfeee1eb95934e588f5440b2c2537ac5 -->
<g id="edge16" class="edge">
<title>4f15373f5e4f4641bab1aee2ab7926a6&#45;&gt;dfeee1eb95934e588f5440b2c2537ac5</title>
<path fill="none" stroke="#7b8894" stroke-dasharray="1,5" d="M519.23,-525.85C544.94,-505.89 575.83,-479.78 600,-452.9 610.21,-441.55 620.09,-428.72 629.16,-415.88"/>
<polygon fill="#7b8894" stroke="#7b8894" points="631.95,-418.01 634.76,-407.8 626.19,-414.03 631.95,-418.01"/>
</g>
<!-- 1348fdb34342420883b714e4793b477c&#45;&gt;1348fdb34342420883b714e4793b477c -->
<g id="edge14" class="edge">
<title>1348fdb34342420883b714e4793b477c&#45;&gt;1348fdb34342420883b714e4793b477c</title>
<path fill="none" stroke="#7b8894" stroke-dasharray="5,2" d="M304.97,-359.73C328.15,-362.06 348.4,-354.93 348.4,-338.35 348.4,-324.55 334.38,-317.3 316.32,-316.6"/>
<polygon fill="#7b8894" stroke="#7b8894" points="316.36,-313.1 306.48,-316.93 316.59,-320.09 316.36,-313.1"/>
<text xml:space="preserve" text-anchor="middle" x="406.15" y="-334.25" font-family="Sans-Serif" font-size="13.00" fill="#2d3436">cross&#45;instance route</text>
</g>
<!-- 12ca817583df48cb865f702002951188 -->
<g id="node11" class="node">
<title>12ca817583df48cb865f702002951188</title>
<image xlink:href="C:\Users\admin\AppData\Roaming\Python\Python314\site-packages\resources/onprem/monitoring\grafana.png" width="100.8px" height="104.105px" preserveAspectRatio="xMinYMin meet" x="625.6" y="-172.202"/>
<text xml:space="preserve" text-anchor="middle" x="676" y="-55.9" font-family="Sans-Serif" font-size="13.00" fill="#2d3436">grafana</text>
</g>
<!-- dfeee1eb95934e588f5440b2c2537ac5&#45;&gt;12ca817583df48cb865f702002951188 -->
<g id="edge17" class="edge">
<title>dfeee1eb95934e588f5440b2c2537ac5&#45;&gt;12ca817583df48cb865f702002951188</title>
<path fill="none" stroke="#7b8894" d="M676,-270.13C676,-247.86 676,-222.88 676,-199.83"/>
<polygon fill="#7b8894" stroke="#7b8894" points="679.5,-199.84 676,-189.84 672.5,-199.84 679.5,-199.84"/>
</g>
</g>
</svg>
