<?xml version="1.0" encoding="UTF-8" standalone="no"?>
<!DOCTYPE svg PUBLIC "-//W3C//DTD SVG 1.1//EN"
 "http://www.w3.org/Graphics/SVG/1.1/DTD/svg11.dtd">
<!-- Generated by graphviz version 15.1.0 (20260618.0150)
 -->
<!-- Title: VDT WebRTC &#45; Architecture Pages: 1 -->
<svg width="3966pt" height="5159pt"
 viewBox="0.00 0.00 3966.00 5159.00" xmlns="http://www.w3.org/2000/svg" xmlns:xlink="http://www.w3.org/1999/xlink">
<g id="graph0" class="graph" transform="scale(4.16667 4.16667) rotate(0) translate(28.8 1209.45)">
<title>VDT WebRTC &#45; Architecture</title>
<polygon fill="white" stroke="none" points="-28.8,28.8 -28.8,-1209.45 923.05,-1209.45 923.05,28.8 -28.8,28.8"/>
<text xml:space="preserve" text-anchor="middle" x="447.12" y="-10.85" font-family="Sans-Serif" font-size="22.00" fill="#2d3436">VDT WebRTC &#45; Architecture</text>
<g id="clust1" class="cluster">
<title>cluster_Clients</title>
<path fill="#e5f5fd" stroke="#aeb6be" d="M124.25,-967.3C124.25,-967.3 472.25,-967.3 472.25,-967.3 478.25,-967.3 484.25,-973.3 484.25,-979.3 484.25,-979.3 484.25,-1160.65 484.25,-1160.65 484.25,-1166.65 478.25,-1172.65 472.25,-1172.65 472.25,-1172.65 124.25,-1172.65 124.25,-1172.65 118.25,-1172.65 112.25,-1166.65 112.25,-1160.65 112.25,-1160.65 112.25,-979.3 112.25,-979.3 112.25,-973.3 118.25,-967.3 124.25,-967.3"/>
<text xml:space="preserve" text-anchor="middle" x="137.88" y="-1157.25" font-family="Sans-Serif" font-size="12.00" fill="#2d3436">Clients</text>
</g>
<g id="clust2" class="cluster">
<title>cluster_TURN fallback (chi dung khi P2P truc tiep that bai)</title>
<path fill="#e5f5fd" stroke="#aeb6be" d="M162.25,-709.45C162.25,-709.45 420.25,-709.45 420.25,-709.45 426.25,-709.45 432.25,-715.45 432.25,-721.45 432.25,-721.45 432.25,-902.8 432.25,-902.8 432.25,-908.8 426.25,-914.8 420.25,-914.8 420.25,-914.8 162.25,-914.8 162.25,-914.8 156.25,-914.8 150.25,-908.8 150.25,-902.8 150.25,-902.8 150.25,-721.45 150.25,-721.45 150.25,-715.45 156.25,-709.45 162.25,-709.45"/>
<text xml:space="preserve" text-anchor="middle" x="291.38" y="-899.4" font-family="Sans-Serif" font-size="12.00" fill="#2d3436">TURN fallback (chi dung khi P2P truc tiep that bai)</text>
</g>
<g id="clust3" class="cluster">
<title>cluster_Signaling (Spring Boot)</title>
<path fill="#e5f5fd" stroke="#aeb6be" d="M413.25,-495.9C413.25,-495.9 656.25,-495.9 656.25,-495.9 662.25,-495.9 668.25,-501.9 668.25,-507.9 668.25,-507.9 668.25,-660.45 668.25,-660.45 668.25,-666.45 662.25,-672.45 656.25,-672.45 656.25,-672.45 413.25,-672.45 413.25,-672.45 407.25,-672.45 401.25,-666.45 401.25,-660.45 401.25,-660.45 401.25,-507.9 401.25,-507.9 401.25,-501.9 407.25,-495.9 413.25,-495.9"/>
<text xml:space="preserve" text-anchor="middle" x="471.12" y="-657.05" font-family="Sans-Serif" font-size="12.00" fill="#2d3436">Signaling (Spring Boot)</text>
</g>
<g id="clust4" class="cluster">
<title>cluster_Data &amp; Messaging</title>
<path fill="#e5f5fd" stroke="#aeb6be" d="M196.25,-253.55C196.25,-253.55 723.25,-253.55 723.25,-253.55 729.25,-253.55 735.25,-259.55 735.25,-265.55 735.25,-265.55 735.25,-446.9 735.25,-446.9 735.25,-452.9 729.25,-458.9 723.25,-458.9 723.25,-458.9 196.25,-458.9 196.25,-458.9 190.25,-458.9 184.25,-452.9 184.25,-446.9 184.25,-446.9 184.25,-265.55 184.25,-265.55 184.25,-259.55 190.25,-253.55 196.25,-253.55"/>
<text xml:space="preserve" text-anchor="middle" x="239.5" y="-443.5" font-family="Sans-Serif" font-size="12.00" fill="#2d3436">Data &amp; Messaging</text>
</g>
<g id="clust5" class="cluster">
<title>cluster_Observability</title>
<path fill="#e5f5fd" stroke="#aeb6be" d="M782.25,-43.75C782.25,-43.75 874.25,-43.75 874.25,-43.75 880.25,-43.75 886.25,-49.75 886.25,-55.75 886.25,-55.75 886.25,-432.5 886.25,-432.5 886.25,-438.5 880.25,-444.5 874.25,-444.5 874.25,-444.5 782.25,-444.5 782.25,-444.5 776.25,-444.5 770.25,-438.5 770.25,-432.5 770.25,-432.5 770.25,-55.75 770.25,-55.75 770.25,-49.75 776.25,-43.75 782.25,-43.75"/>
<text xml:space="preserve" text-anchor="middle" x="812.38" y="-429.1" font-family="Sans-Serif" font-size="12.00" fill="#2d3436">Observability</text>
</g>
<!-- 1d563389185f4d2b9542886ee810c4ae -->
<g id="node1" class="node">
<title>1d563389185f4d2b9542886ee810c4ae</title>
<image xlink:href="C:\Users\admin\AppData\Roaming\Python\Python314\site-packages\resources/onprem/client\users.png" width="100.8px" height="100.8px" preserveAspectRatio="xMinYMin meet" x="119.85" y="-1108.5"/>
<text xml:space="preserve" text-anchor="middle" x="170.25" y="-995.95" font-family="Sans-Serif" font-size="13.00" fill="#2d3436">User A</text>
<text xml:space="preserve" text-anchor="middle" x="170.25" y="-979.45" font-family="Sans-Serif" font-size="13.00" fill="#2d3436">(browser)</text>
</g>
<!-- a053174aad2c49ddac2c4d3a0bde4c37 -->
<g id="node2" class="node">
<title>a053174aad2c49ddac2c4d3a0bde4c37</title>
<image xlink:href="C:\Users\admin\AppData\Roaming\Python\Python314\site-packages\resources/onprem/client\users.png" width="100.8px" height="100.8px" preserveAspectRatio="xMinYMin meet" x="375.85" y="-1108.5"/>
<text xml:space="preserve" text-anchor="middle" x="426.25" y="-995.95" font-family="Sans-Serif" font-size="13.00" fill="#2d3436">User B</text>
<text xml:space="preserve" text-anchor="middle" x="426.25" y="-979.45" font-family="Sans-Serif" font-size="13.00" fill="#2d3436">(browser)</text>
</g>
<!-- 1d563389185f4d2b9542886ee810c4ae&#45;&gt;a053174aad2c49ddac2c4d3a0bde4c37 -->
<g id="edge5" class="edge">
<title>1d563389185f4d2b9542886ee810c4ae&#45;&gt;a053174aad2c49ddac2c4d3a0bde4c37</title>
<path fill="none" stroke="green" stroke-width="2" d="M220.52,-1058.1C261.83,-1058.1 320.51,-1058.1 364.63,-1058.1"/>
<polygon fill="green" stroke="green" stroke-width="2" points="363.07,-1061.6 373.07,-1058.1 363.07,-1054.6 363.07,-1061.6"/>
<text xml:space="preserve" text-anchor="middle" x="298.25" y="-1065.25" font-family="Sans-Serif" font-size="13.00" fill="#2d3436">P2P media (SRTP)</text>
</g>
<!-- e94f706027c942b691ab01faa77e3868 -->
<g id="node3" class="node">
<title>e94f706027c942b691ab01faa77e3868</title>
<image xlink:href="C:\Users\admin\AppData\Roaming\Python\Python314\site-packages\resources/onprem/network\internet.png" width="100.8px" height="100.8px" preserveAspectRatio="xMinYMin meet" x="240.85" y="-850.65"/>
<text xml:space="preserve" text-anchor="middle" x="291.25" y="-738.1" font-family="Sans-Serif" font-size="13.00" fill="#2d3436">coturn</text>
<text xml:space="preserve" text-anchor="middle" x="291.25" y="-721.6" font-family="Sans-Serif" font-size="13.00" fill="#2d3436">(STUN/TURN)</text>
</g>
<!-- 1d563389185f4d2b9542886ee810c4ae&#45;&gt;e94f706027c942b691ab01faa77e3868 -->
<g id="edge6" class="edge">
<title>1d563389185f4d2b9542886ee810c4ae&#45;&gt;e94f706027c942b691ab01faa77e3868</title>
<path fill="none" stroke="#7b8894" stroke-dasharray="5,2" d="M120.09,-1022.39C69.87,-987.65 0,-939.3 0,-939.3 0,-939.3 0,-922.8 0,-922.8 0,-922.8 144.84,-862.35 230.24,-826.71"/>
<polygon fill="#7b8894" stroke="#7b8894" points="231.57,-829.95 239.45,-822.87 228.88,-823.49 231.57,-829.95"/>
<text xml:space="preserve" text-anchor="middle" x="61.12" y="-926.95" font-family="Sans-Serif" font-size="13.00" fill="#2d3436">TURN relay (fallback)</text>
</g>
<!-- 8ab73e0984124dbf9205db9663f73897 -->
<g id="node4" class="node">
<title>8ab73e0984124dbf9205db9663f73897</title>
<image xlink:href="C:\Users\admin\AppData\Roaming\Python\Python314\site-packages\resources/onprem/network\nginx.png" width="100.8px" height="100.8px" preserveAspectRatio="xMinYMin meet" x="495.85" y="-850.65"/>
<text xml:space="preserve" text-anchor="middle" x="546.25" y="-738.1" font-family="Sans-Serif" font-size="13.00" fill="#2d3436">nginx</text>
<text xml:space="preserve" text-anchor="middle" x="546.25" y="-721.6" font-family="Sans-Serif" font-size="13.00" fill="#2d3436">(LB + reverse proxy + SPA)</text>
</g>
<!-- 1d563389185f4d2b9542886ee810c4ae&#45;&gt;8ab73e0984124dbf9205db9663f73897 -->
<g id="edge1" class="edge">
<title>1d563389185f4d2b9542886ee810c4ae&#45;&gt;8ab73e0984124dbf9205db9663f73897</title>
<path fill="none" stroke="#7b8894" d="M171.92,-975.49C172.5,-947.37 173,-922.8 173,-922.8 173,-922.8 444.25,-914.8 444.25,-914.8 444.25,-914.8 465.5,-891.14 488.61,-865.42"/>
<polygon fill="#7b8894" stroke="#7b8894" points="491.06,-867.93 495.14,-858.15 485.85,-863.25 491.06,-867.93"/>
<text xml:space="preserve" text-anchor="middle" x="259.62" y="-926.95" font-family="Sans-Serif" font-size="13.00" fill="#2d3436">WSS signaling + HTTPS REST</text>
</g>
<!-- a053174aad2c49ddac2c4d3a0bde4c37&#45;&gt;e94f706027c942b691ab01faa77e3868 -->
<g id="edge7" class="edge">
<title>a053174aad2c49ddac2c4d3a0bde4c37&#45;&gt;e94f706027c942b691ab01faa77e3868</title>
<path fill="none" stroke="#7b8894" stroke-dasharray="5,2" d="M384.93,-975.49C370.69,-947.37 358.25,-922.8 358.25,-922.8 358.25,-922.8 351.26,-910.12 341.8,-892.95"/>
<polygon fill="#7b8894" stroke="#7b8894" points="344.93,-891.39 337.04,-884.33 338.8,-894.77 344.93,-891.39"/>
<text xml:space="preserve" text-anchor="middle" x="426.45" y="-926.95" font-family="Sans-Serif" font-size="13.00" fill="#2d3436">TURN relay (fallback)</text>
</g>
<!-- a053174aad2c49ddac2c4d3a0bde4c37&#45;&gt;8ab73e0984124dbf9205db9663f73897 -->
<g id="edge2" class="edge">
<title>a053174aad2c49ddac2c4d3a0bde4c37&#45;&gt;8ab73e0984124dbf9205db9663f73897</title>
<path fill="none" stroke="#7b8894" d="M476.6,-1002.68C505.16,-971.82 535.25,-939.3 535.25,-939.3 535.25,-939.3 536.86,-919.07 538.85,-894.1"/>
<polygon fill="#7b8894" stroke="#7b8894" points="542.33,-894.51 539.64,-884.26 535.35,-893.95 542.33,-894.51"/>
<text xml:space="preserve" text-anchor="middle" x="623.02" y="-926.95" font-family="Sans-Serif" font-size="13.00" fill="#2d3436">WSS signaling + HTTPS REST</text>
</g>
<!-- cfead9d5208a46049626b4fafcaac66f -->
<g id="node5" class="node">
<title>cfead9d5208a46049626b4fafcaac66f</title>
<image xlink:href="C:\Users\admin\AppData\Roaming\Python\Python314\site-packages\resources/programming/framework\spring.png" width="100.8px" height="100.8px" preserveAspectRatio="xMinYMin meet" x="408.85" y="-622.7"/>
<text xml:space="preserve" text-anchor="middle" x="459.25" y="-508.05" font-family="Sans-Serif" font-size="13.00" fill="#2d3436">backend&#45;1</text>
</g>
<!-- 8ab73e0984124dbf9205db9663f73897&#45;&gt;cfead9d5208a46049626b4fafcaac66f -->
<g id="edge3" class="edge">
<title>8ab73e0984124dbf9205db9663f73897&#45;&gt;cfead9d5208a46049626b4fafcaac66f</title>
<path fill="none" stroke="#7b8894" d="M514.84,-717.68C506.51,-696.05 497.54,-672.75 489.29,-651.32"/>
<polygon fill="#7b8894" stroke="#7b8894" points="492.58,-650.12 485.72,-642.05 486.05,-652.64 492.58,-650.12"/>
</g>
<!-- 02ac4448c07a4bb39f6ad690f66d90ac -->
<g id="node6" class="node">
<title>02ac4448c07a4bb39f6ad690f66d90ac</title>
<image xlink:href="C:\Users\admin\AppData\Roaming\Python\Python314\site-packages\resources/programming/framework\spring.png" width="100.8px" height="100.8px" preserveAspectRatio="xMinYMin meet" x="559.85" y="-622.7"/>
<text xml:space="preserve" text-anchor="middle" x="610.25" y="-508.05" font-family="Sans-Serif" font-size="13.00" fill="#2d3436">backend&#45;2</text>
</g>
<!-- 8ab73e0984124dbf9205db9663f73897&#45;&gt;02ac4448c07a4bb39f6ad690f66d90ac -->
<g id="edge4" class="edge">
<title>8ab73e0984124dbf9205db9663f73897&#45;&gt;02ac4448c07a4bb39f6ad690f66d90ac</title>
<path fill="none" stroke="#7b8894" d="M569.36,-717.68C575.45,-696.15 582.02,-672.97 588.07,-651.61"/>
<polygon fill="#7b8894" stroke="#7b8894" points="591.41,-652.67 590.77,-642.09 584.67,-650.76 591.41,-652.67"/>
</g>
<!-- 17653d1ce94a4783b0ad904805db4435 -->
<g id="node7" class="node">
<title>17653d1ce94a4783b0ad904805db4435</title>
<image xlink:href="C:\Users\admin\AppData\Roaming\Python\Python314\site-packages\resources/onprem/database\postgresql.png" width="100.8px" height="100.8px" preserveAspectRatio="xMinYMin meet" x="191.85" y="-394.75"/>
<text xml:space="preserve" text-anchor="middle" x="242.25" y="-280.1" font-family="Sans-Serif" font-size="13.00" fill="#2d3436">postgres</text>
</g>
<!-- cfead9d5208a46049626b4fafcaac66f&#45;&gt;17653d1ce94a4783b0ad904805db4435 -->
<g id="edge8" class="edge">
<title>cfead9d5208a46049626b4fafcaac66f&#45;&gt;17653d1ce94a4783b0ad904805db4435</title>
<path fill="none" stroke="#7b8894" d="M409.14,-531.36C368.61,-499.05 318.25,-458.9 318.25,-458.9 318.25,-458.9 307.31,-442.56 293.73,-422.27"/>
<polygon fill="#7b8894" stroke="#7b8894" points="296.65,-420.34 288.18,-413.97 290.83,-424.23 296.65,-420.34"/>
</g>
<!-- ca80c463a1dc4d54b5a8a2f2ca496286 -->
<g id="node8" class="node">
<title>ca80c463a1dc4d54b5a8a2f2ca496286</title>
<image xlink:href="C:\Users\admin\AppData\Roaming\Python\Python314\site-packages\resources/onprem/inmemory\redis.png" width="100.8px" height="100.8px" preserveAspectRatio="xMinYMin meet" x="342.85" y="-394.75"/>
<text xml:space="preserve" text-anchor="middle" x="393.25" y="-282.2" font-family="Sans-Serif" font-size="13.00" fill="#2d3436">redis</text>
<text xml:space="preserve" text-anchor="middle" x="393.25" y="-265.7" font-family="Sans-Serif" font-size="13.00" fill="#2d3436">(pub/sub + presence)</text>
</g>
<!-- cfead9d5208a46049626b4fafcaac66f&#45;&gt;ca80c463a1dc4d54b5a8a2f2ca496286 -->
<g id="edge9" class="edge">
<title>cfead9d5208a46049626b4fafcaac66f&#45;&gt;ca80c463a1dc4d54b5a8a2f2ca496286</title>
<path fill="none" stroke="#7b8894" d="M439.63,-504.12C433.55,-483.33 426.75,-460.04 420.27,-437.85"/>
<polygon fill="#7b8894" stroke="#7b8894" points="423.7,-437.13 417.54,-428.51 416.98,-439.09 423.7,-437.13"/>
</g>
<!-- d959aec6d9604767809dc92cd7253621 -->
<g id="node9" class="node">
<title>d959aec6d9604767809dc92cd7253621</title>
<image xlink:href="C:\Users\admin\AppData\Roaming\Python\Python314\site-packages\resources/onprem/queue\rabbitmq.png" width="100.8px" height="100.8px" preserveAspectRatio="xMinYMin meet" x="626.85" y="-394.75"/>
<text xml:space="preserve" text-anchor="middle" x="677.25" y="-282.2" font-family="Sans-Serif" font-size="13.00" fill="#2d3436">rabbitmq</text>
<text xml:space="preserve" text-anchor="middle" x="677.25" y="-265.7" font-family="Sans-Serif" font-size="13.00" fill="#2d3436">(call&#45;history)</text>
</g>
<!-- cfead9d5208a46049626b4fafcaac66f&#45;&gt;d959aec6d9604767809dc92cd7253621 -->
<g id="edge10" class="edge">
<title>cfead9d5208a46049626b4fafcaac66f&#45;&gt;d959aec6d9604767809dc92cd7253621</title>
<path fill="none" stroke="#7b8894" d="M509.52,-521.43C523.65,-507.41 535.25,-495.9 535.25,-495.9 535.25,-495.9 582.25,-466.9 582.25,-466.9 582.25,-466.9 602.25,-458.9 602.25,-458.9 602.25,-458.9 610.15,-446.93 620.83,-430.77"/>
<polygon fill="#7b8894" stroke="#7b8894" points="623.59,-432.94 626.18,-422.67 617.75,-429.08 623.59,-432.94"/>
</g>
<!-- 9a90ac2484854829a3d8f96fedbccd07 -->
<g id="node10" class="node">
<title>9a90ac2484854829a3d8f96fedbccd07</title>
<image xlink:href="C:\Users\admin\AppData\Roaming\Python\Python314\site-packages\resources/onprem/monitoring\prometheus.png" width="100.8px" height="100.8px" preserveAspectRatio="xMinYMin meet" x="777.85" y="-394.75"/>
<text xml:space="preserve" text-anchor="middle" x="828.25" y="-280.1" font-family="Sans-Serif" font-size="13.00" fill="#2d3436">prometheus</text>
</g>
<!-- cfead9d5208a46049626b4fafcaac66f&#45;&gt;9a90ac2484854829a3d8f96fedbccd07 -->
<g id="edge15" class="edge">
<title>cfead9d5208a46049626b4fafcaac66f&#45;&gt;9a90ac2484854829a3d8f96fedbccd07</title>
<path fill="none" stroke="#7b8894" stroke-dasharray="1,5" d="M509.52,-521.43C523.65,-507.41 535.25,-495.9 535.25,-495.9 535.25,-495.9 747.25,-458.9 747.25,-458.9 747.25,-458.9 759.01,-442.41 773.58,-421.99"/>
<polygon fill="#7b8894" stroke="#7b8894" points="776.36,-424.12 779.32,-413.95 770.66,-420.06 776.36,-424.12"/>
</g>
<!-- 02ac4448c07a4bb39f6ad690f66d90ac&#45;&gt;17653d1ce94a4783b0ad904805db4435 -->
<g id="edge11" class="edge">
<title>02ac4448c07a4bb39f6ad690f66d90ac&#45;&gt;17653d1ce94a4783b0ad904805db4435</title>
<path fill="none" stroke="#7b8894" d="M559.98,-521.43C545.85,-507.41 534.25,-495.9 534.25,-495.9 534.25,-495.9 367.25,-466.9 367.25,-466.9 367.25,-466.9 318.25,-458.9 318.25,-458.9 318.25,-458.9 307.31,-442.56 293.73,-422.27"/>
<polygon fill="#7b8894" stroke="#7b8894" points="296.65,-420.34 288.18,-413.97 290.83,-424.23 296.65,-420.34"/>
</g>
<!-- 02ac4448c07a4bb39f6ad690f66d90ac&#45;&gt;ca80c463a1dc4d54b5a8a2f2ca496286 -->
<g id="edge12" class="edge">
<title>02ac4448c07a4bb39f6ad690f66d90ac&#45;&gt;ca80c463a1dc4d54b5a8a2f2ca496286</title>
<path fill="none" stroke="#7b8894" d="M559.92,-518.89C527.47,-485.1 485.15,-441.04 451.28,-405.77"/>
<polygon fill="#7b8894" stroke="#7b8894" points="453.81,-403.35 444.36,-398.56 448.76,-408.2 453.81,-403.35"/>
</g>
<!-- 02ac4448c07a4bb39f6ad690f66d90ac&#45;&gt;d959aec6d9604767809dc92cd7253621 -->
<g id="edge13" class="edge">
<title>02ac4448c07a4bb39f6ad690f66d90ac&#45;&gt;d959aec6d9604767809dc92cd7253621</title>
<path fill="none" stroke="#7b8894" d="M630.17,-504.12C636.34,-483.33 643.24,-460.04 649.82,-437.85"/>
<polygon fill="#7b8894" stroke="#7b8894" points="653.1,-439.09 652.59,-428.51 646.39,-437.1 653.1,-439.09"/>
</g>
<!-- 02ac4448c07a4bb39f6ad690f66d90ac&#45;&gt;9a90ac2484854829a3d8f96fedbccd07 -->
<g id="edge16" class="edge">
<title>02ac4448c07a4bb39f6ad690f66d90ac&#45;&gt;9a90ac2484854829a3d8f96fedbccd07</title>
<path fill="none" stroke="#7b8894" stroke-dasharray="1,5" d="M660.49,-530.08C699.59,-498.01 747.25,-458.9 747.25,-458.9 747.25,-458.9 759.01,-442.41 773.58,-421.99"/>
<polygon fill="#7b8894" stroke="#7b8894" points="776.36,-424.12 779.32,-413.95 770.66,-420.06 776.36,-424.12"/>
</g>
<!-- ca80c463a1dc4d54b5a8a2f2ca496286&#45;&gt;ca80c463a1dc4d54b5a8a2f2ca496286 -->
<g id="edge14" class="edge">
<title>ca80c463a1dc4d54b5a8a2f2ca496286&#45;&gt;ca80c463a1dc4d54b5a8a2f2ca496286</title>
<path fill="none" stroke="#7b8894" stroke-dasharray="5,2" d="M443.62,-365.9C469.9,-369.3 493.65,-362.12 493.65,-344.35 493.65,-329.22 476.43,-321.77 455.08,-321.99"/>
<polygon fill="#7b8894" stroke="#7b8894" points="454.85,-318.49 445.13,-322.69 455.35,-325.48 454.85,-318.49"/>
<text xml:space="preserve" text-anchor="middle" x="551.4" y="-340.25" font-family="Sans-Serif" font-size="13.00" fill="#2d3436">cross&#45;instance route</text>
</g>
<!-- 0bf5964a41a2495fb2f1212622400b7a -->
<g id="node11" class="node">
<title>0bf5964a41a2495fb2f1212622400b7a</title>
<image xlink:href="C:\Users\admin\AppData\Roaming\Python\Python314\site-packages\resources/onprem/monitoring\grafana.png" width="100.8px" height="104.105px" preserveAspectRatio="xMinYMin meet" x="777.85" y="-172.202"/>
<text xml:space="preserve" text-anchor="middle" x="828.25" y="-55.9" font-family="Sans-Serif" font-size="13.00" fill="#2d3436">grafana</text>
</g>
<!-- 9a90ac2484854829a3d8f96fedbccd07&#45;&gt;0bf5964a41a2495fb2f1212622400b7a -->
<g id="edge17" class="edge">
<title>9a90ac2484854829a3d8f96fedbccd07&#45;&gt;0bf5964a41a2495fb2f1212622400b7a</title>
<path fill="none" stroke="#7b8894" d="M828.25,-276.08C828.25,-251.93 828.25,-224.49 828.25,-199.49"/>
<polygon fill="#7b8894" stroke="#7b8894" points="831.75,-199.71 828.25,-189.71 824.75,-199.71 831.75,-199.71"/>
</g>
</g>
</svg>
